<svg height="244.869225" viewBox="0 0 364.67658 218.84627" width="408.381249" xmlns="http://www.w3.org/2000/svg" xmlns:xlink="http://www.w3.org/1999/xlink"><radialGradient id="a" cx="230.25324" cy="31.36067" gradientUnits="userSpaceOnUse" r="53.84155"><stop offset="0" stop-color="#fbecb4"/><stop offset=".3458" stop-color="#f7dc77"/><stop offset=".705" stop-color="#bc9e51"/><stop offset=".9471" stop-color="#422f00"/></radialGradient><linearGradient id="b" gradientUnits="userSpaceOnUse" x1="249.85909" x2="260.56663" y1="15.23377" y2="54.04844"><stop offset=".08291" stop-color="#422f00" stop-opacity=".02771"/><stop offset=".8842" stop-color="#422f00"/></linearGradient><radialGradient id="c" cx="221.04683" cy="38.06626" gradientUnits="userSpaceOnUse" r="37.7086"><stop offset=".5009" stop-color="#fff"/><stop offset="1" stop-color="#fff" stop-opacity=".02771"/></radialGradient><linearGradient id="d" gradientTransform="translate(0 -2726.35533)" gradientUnits="userSpaceOnUse" x1="187.92951" x2="232.38858" y1="2749.62345" y2="2794.08255"><stop offset=".1085" stop-color="#422f00" stop-opacity=".02771"/><stop offset=".5516" stop-color="#422f00"/></linearGradient><radialGradient id="e" cx="239.60628" cy="29.03588" gradientUnits="userSpaceOnUse" r="52.35461"><stop offset="0" stop-color="#f0f1f1"/><stop offset=".3824" stop-color="#b1b3b5"/><stop offset=".7135" stop-color="#f0f1f1"/><stop offset="1" stop-color="#67686a"/></radialGradient><linearGradient id="f" gradientUnits="userSpaceOnUse" x1="224.96451" x2="208.64362" y1="74.56599" y2="74.56599"><stop offset=".02664" stop-color="#624a00"/><stop offset=".1751" stop-color="#bc9e51"/><stop offset=".3467" stop-color="#f7dc77"/><stop offset=".5615" stop-color="#f7dc77"/><stop offset=".66" stop-color="#f7dc77"/><stop offset=".8382" stop-color="#bc9e51"/><stop offset="1" stop-color="#624a00"/></linearGradient><linearGradient id="g" gradientUnits="userSpaceOnUse" x1="240.0371" x2="135.33738" y1="196.83425" y2="196.83425"><stop offset="0" stop-color="#422f00"/><stop offset=".1326" stop-color="#f7dc77"/><stop offset=".136" stop-color="#f4d875"/><stop offset=".1711" stop-color="#d5b961"/><stop offset=".2006" stop-color="#c3a555"/><stop offset=".2207" stop-color="#bc9e51"/><stop offset=".231" stop-color="#c4aa64"/><stop offset=".2627" stop-color="#dccc9a"/><stop offset=".2863" stop-color="#ebe1bc"/><stop offset=".2992" stop-color="#f1e9c9"/><stop offset=".3057" stop-color="#f3ecd0"/><stop offset=".3324" stop-color="#faf6ea"/><stop offset=".3565" stop-color="#fefdfa"/><stop offset=".3756" stop-color="#fff"/><stop offset=".4002" stop-color="#fffefb"/><stop offset=".4221" stop-color="#fefbf1"/><stop offset=".4429" stop-color="#fdf7de"/><stop offset=".4631" stop-color="#fcf0c5"/><stop offset=".4827" stop-color="#fae8a4"/><stop offset=".4998" stop-color="#f8df81"/><stop offset=".6275" stop-color="#fffacc"/><stop offset=".6497" stop-color="#e9dfab"/><stop offset=".7055" stop-color="#b59f5d"/><stop offset=".7453" stop-color="#95772c"/><stop offset=".7649" stop-color="#886719"/><stop offset=".855" stop-color="#f7dc77"/><stop offset=".9248" stop-color="#bc9e51"/><stop offset=".9886" stop-color="#422f00"/></linearGradient><linearGradient id="h" gradientTransform="translate(0 -2726.35533)" gradientUnits="userSpaceOnUse" x1="240.0371" x2="135.33738" y1="2916.60625" y2="2916.60625"><stop offset="0" stop-color="#fbecb4"/><stop offset=".3458" stop-color="#f7dc77"/><stop offset=".705" stop-color="#bc9e51"/><stop offset="1" stop-color="#72560d"/></linearGradient><linearGradient id="i" gradientUnits="userSpaceOnUse" x1="144.26279" x2="230.98507" y1="187.81388" y2="187.81388"><stop offset=".01142" stop-color="#422f00"/><stop offset=".07123" stop-color="#bc9e51"/><stop offset=".145" stop-color="#f7dc77"/><stop offset=".2351" stop-color="#886719"/><stop offset=".2547" stop-color="#95772c"/><stop offset=".2945" stop-color="#b59f5d"/><stop offset=".3503" stop-color="#e9dfab"/><stop offset=".3725" stop-color="#fffacc"/><stop offset=".5002" stop-color="#f8df81"/><stop offset=".5173" stop-color="#fae8a4"/><stop offset=".5369" stop-color="#fcf0c5"/><stop offset=".5571" stop-color="#fdf7de"/><stop offset=".5779" stop-color="#fefbf1"/><stop offset=".5998" stop-color="#fffefb"/><stop offset=".6244" stop-color="#fff"/><stop offset=".6435" stop-color="#fefdfa"/><stop offset=".6676" stop-color="#faf6ea"/><stop offset=".6943" stop-color="#f3ecd0"/><stop offset=".7008" stop-color="#f1e9c9"/><stop offset=".7137" stop-color="#ebe1bc"/><stop offset=".7373" stop-color="#dccc9a"/><stop offset=".769" stop-color="#c4aa64"/><stop offset=".7793" stop-color="#bc9e51"/><stop offset=".7994" stop-color="#c3a555"/><stop offset=".8289" stop-color="#d5b961"/><stop offset=".864" stop-color="#f4d875"/><stop offset=".8674" stop-color="#f7dc77"/><stop offset="1" stop-color="#422f00"/></linearGradient><linearGradient id="j" x1="230.98507" x2="144.26279" xlink:href="#h" y1="2908.72533" y2="2908.72533"/><linearGradient id="k" gradientTransform="translate(0 -2726.35533)" gradientUnits="userSpaceOnUse" x1="240.0371" x2="135.33736" y1="2919.45479" y2="2919.45479"><stop offset="0" stop-color="#fbecb4"/><stop offset=".3168" stop-color="#fff"/><stop offset=".6168" stop-color="#fbecb4"/><stop offset=".8744" stop-color="#bc9e51"/><stop offset="1" stop-color="#72560d"/></linearGradient><linearGradient id="l" x1="231.01412" x2="144.29186" xlink:href="#k" y1="2910.49771" y2="2910.49771"/><linearGradient id="m" gradientUnits="userSpaceOnUse" x1="225.29277" x2="167.74975" y1="135.43431" y2="122.99915"><stop offset=".03933" stop-color="#422f00"/><stop offset=".1132" stop-color="#81692a"/><stop offset=".1702" stop-color="#ac8f46"/><stop offset=".1993" stop-color="#bc9e51"/><stop offset=".352" stop-color="#f7dc77"/><stop offset=".5826" stop-color="#f7dc77"/><stop offset=".9709" stop-color="#bc9e51"/></linearGradient><linearGradient id="n" gradientUnits="userSpaceOnUse" x1="175.78667" x2="164.30153" y1="180.0911" y2="180.0911"><stop offset=".1513" stop-color="#fbecb4"/><stop offset=".4819" stop-color="#f7dc77"/><stop offset="1" stop-color="#bc9e51"/></linearGradient><linearGradient id="o" gradientUnits="userSpaceOnUse" x1="175.78669" x2="164.30155" y1="180.0911" y2="180.0911"><stop offset="0" stop-color="#fbecb4"/><stop offset=".3168" stop-color="#fff"/><stop offset=".6168" stop-color="#fbecb4"/><stop offset="1" stop-color="#bc9e51"/></linearGradient><linearGradient id="p" x1="174.19706" x2="233.67707" xlink:href="#d" y1="2800.82888" y2="2800.82888"/><linearGradient id="q" gradientUnits="userSpaceOnUse" x1="212.90235" x2="197.98954" y1="131.84508" y2="129.49947"><stop offset=".1334" stop-color="#fbecb4" stop-opacity=".02771"/><stop offset=".5326" stop-color="#fbecb4"/><stop offset=".8462" stop-color="#fbecb4" stop-opacity="0"/></linearGradient><linearGradient id="r" gradientUnits="userSpaceOnUse" x1="189.77738" x2="177.4666" y1="130.6692" y2="130.1545"><stop offset="0" stop-color="#422f00" stop-opacity=".02771"/><stop offset=".5535" stop-color="#422f00"/><stop offset=".9709" stop-color="#422f00" stop-opacity="0"/></linearGradient><linearGradient id="s" gradientUnits="userSpaceOnUse" x1="230.18117" x2="176.67742" y1="130.50117" y2="128.85991"><stop offset=".3235" stop-color="#fff" stop-opacity=".03"/><stop offset=".4816" stop-color="#fff"/><stop offset=".7027" stop-color="#fff"/><stop offset=".9239" stop-color="#fff" stop-opacity="0"/></linearGradient><linearGradient id="t" gradientUnits="userSpaceOnUse" x1="231.68139" x2="175.3436" y1="129.10312" y2="129.10312"><stop offset="0" stop-color="#636365"/><stop offset=".3412" stop-color="#919395"/><stop offset=".6561" stop-color="#eceded"/><stop offset=".8402" stop-color="#8d8e91"/><stop offset="1" stop-color="#5f5f61"/></linearGradient><linearGradient id="u" gradientUnits="userSpaceOnUse" x1="234.51206" x2="174.19712" y1="79.69586" y2="79.69586"><stop offset=".3733" stop-color="#422f00"/><stop offset="1" stop-color="#422f00" stop-opacity=".5"/></linearGradient><linearGradient id="v" gradientUnits="userSpaceOnUse" x1="233.65243" x2="174.13848" y1="77.70779" y2="77.70779"><stop offset="0" stop-color="#fbecb4" stop-opacity=".08"/><stop offset=".162" stop-color="#fbecb4"/><stop offset=".4798" stop-color="#fbecb4"/><stop offset=".941" stop-color="#fbecb4" stop-opacity="0"/></linearGradient><linearGradient id="w" gradientUnits="userSpaceOnUse" x1="162.57549" x2="176.92891" y1="181.42045" y2="181.42045"><stop offset="0" stop-color="#422f00"/><stop offset=".5" stop-color="#422f00" stop-opacity="0"/></linearGradient><path d="m222.18624.31651a5.27208 5.27208 0 0 1 1.39262-.18991 37.3705 37.3705 0 0 1 23.10483 9.93825 1.7904 1.7904 0 0 1 .1899.3798l1.32931 1.20272c.06331 0 .12662.0633.25321.1266a37.75184 37.75184 0 0 1 9.55845 18.104c0 .44311-.12662.50641-.12662.50641l.25321 1.96233a.92192.92192 0 0 1 .37982.56971 37.96083 37.96083 0 0 1 .3165 4.68427 37.48648 37.48648 0 0 1 -4.30447 17.40781 16.9809 16.9809 0 0 1 -1.64583 2.34214 9.89046 9.89046 0 0 1 -.82291 1.64582 37.4212 37.4212 0 0 1 -52.06142 9.50254q-.628-.43416-1.23794-.89365a1.08634 1.08634 0 0 1 -.25321-.3798l-1.51922-1.266a1.52132 1.52132 0 0 1 -.5064-.12661 37.31385 37.31385 0 0 1 -12.28036-22.02874.64089.64089 0 0 1 .12662-.4431l-.31652-1.77243c-.12661-.1266-.18989-.1899-.18989-.3165a35.65541 35.65541 0 0 1 -.1899-3.67146 37.49728 37.49728 0 0 1 7.59612-22.59843 4.78158 4.78158 0 0 1 1.20271-1.01281 2.23441 2.23441 0 0 1 .44311-1.01282 37.40271 37.40271 0 0 1 27.5992-12.91334 6.421 6.421 0 0 1 1.70908.2532" fill="url(#a)"/><path d="m257.57145 37.60075c0-1.266-.12662-2.532-.25321-3.79806-1.64583-1.01281-3.165-1.77242-4.30444-2.40543a39.52036 39.52036 0 0 1 3.03842 15.25552c0 .4431-.06329.88621-.06329 1.39262a35.33953 35.33953 0 0 0 1.58252-10.44465zm-7.153-21.26911a45.64346 45.64346 0 0 1 -1.20272 4.87417 1.90191 1.90191 0 0 0 .37981 1.83573 20.28564 20.28564 0 0 0 6.45671 4.05126 38.77082 38.77082 0 0 0 -5.63379-10.76116z" fill="url(#b)" opacity=".5"/><path d="m245.22776 18.67377c.88621-1.899 2.15223-5.38057 2.02563-6.8365a2.73516 2.73516 0 0 0 -.44311-1.39262.49262.49262 0 0 0 -.1899-.3798c-.12662-.1266-.88621-.75961-1.20271-1.01282a6.32989 6.32989 0 0 1 .50639 2.15224c.12662 1.45592-1.1394 4.93747-2.02563 6.83649a1.248 1.248 0 0 1 -1.07613.88622l.12662.1266c1.07614.88621 1.83575.56971 2.27884-.37981zm-13.35651-9.81164c1.32933 1.83573 7.53281 9.55844 8.73552 10.69785 1.51923 1.39263 1.45592 2.27884 1.01282 2.97515-.37981.75961-1.39263 2.15223-1.83573 2.91184a1.663 1.663 0 0 1 -1.64582.82291 1.7943 1.7943 0 0 0 2.91185-.1899c.44311-.7596 1.39262-2.15222 1.83572-2.91184a2.76 2.76 0 0 0 -1.07613-3.16505c-1.266-1.07611-7.27961-8.67222-8.60893-10.57125-1.32933-1.83573-4.05125-5.38058-6.3934-6.7732a17.3575 17.3575 0 0 0 -6.39337-2.65864c-.3165 0-1.70914.0633-1.70914.0633a17.48 17.48 0 0 1 6.8998 2.532 24.26339 24.26339 0 0 1 6.26683 6.26683zm-29.68811 3.54487c8.03922.25321 20.00308 4.17786 33.73938 14.939a1.91812 1.91812 0 0 1 .6963 2.78524 29.2684 29.2684 0 0 1 -2.59533 3.48155 1.96089 1.96089 0 0 1 -2.08892.88621c.0633.0633.1899.1266.25321.18991a2.01438 2.01438 0 0 0 3.10174-.44311 38.2832 38.2832 0 0 0 2.59534-3.48155 2.44363 2.44363 0 0 0 -.6963-3.165 78.10725 78.10725 0 0 0 -18.04076-11.58407c-7.59611-3.67145-14.05282-4.93747-19.49667-4.49437a13.86385 13.86385 0 0 0 -7.27962 2.46874 4.63935 4.63935 0 0 0 -.75961.56971 20.30652 20.30652 0 0 1 10.57124-2.15226zm43.29786 11.58405a35.19439 35.19439 0 0 0 5.63377 5.00077c2.08891 1.32932 5.76038 2.97515 7.2796 4.24117a1.6703 1.6703 0 0 0 -.06332-.44311 70.06916 70.06916 0 0 0 -6.20348-3.73475 32.01885 32.01885 0 0 1 -5.31727-4.36777 1.73662 1.73662 0 0 0 -1.3293-.69631zm-3.48155 8.16582a1.45589 1.45589 0 0 0 -1.13941-.50641 91.48136 91.48136 0 0 1 7.4695 9.685 23.96291 23.96291 0 0 1 3.54486 17.91416 9.41773 9.41773 0 0 0 .94951-1.83572v-.0633c1.45592-6.5833-.82291-11.52077-3.29166-15.76194a51.75741 51.75741 0 0 0 -7.53285-9.43179zm-21.39571-1.01282a19.2917 19.2917 0 0 1 9.052 2.02563c-1.64583-1.20272-4.30444-2.65864-9.36853-2.72194a78.53156 78.53156 0 0 0 -21.90211 2.97515 50.32357 50.32357 0 0 0 -11.45748 4.30446v-1.64582a34.64625 34.64625 0 0 1 5.69708-19.11688 35.07054 35.07054 0 0 0 -6.77319 20.6994 3.08217 3.08217 0 0 0 .06329.75961c-.75961.50641-1.51922 1.07611-2.21553 1.64582a13.0556 13.0556 0 0 0 .12662 1.32932.4384.4384 0 0 0 .1899.2532c2.27884-2.59533 8.60893-5.63378 16.58485-7.53281 8.60889-2.15219 13.41977-2.97514 20.00307-2.97514zm16.01512 38.487c-.2532.37981-.50639.82292-.75961 1.13942a35.54949 35.54949 0 0 0 14.62249-12.72347c-3.355 4.74751-6.70988 7.59605-13.8629 11.584zm.56973-9.685c3.60816-10.63455.3165-16.14173-1.07612-18.48387a2.23608 2.23608 0 0 0 -1.77242-1.266 5.53781 5.53781 0 0 1 .5064.633c1.39262 2.40544 4.68426 7.91262 1.07612 18.48387-2.15224 6.20349-4.55768 10.06485-7.153 12.53358a36.72048 36.72048 0 0 1 -6.52.633 31.99465 31.99465 0 0 1 -16.96465-4.36776c.0633 0 .0633 0 .0633-.0633.0633 0 .0633-.0633.12661-.0633a.062.062 0 0 0 .06331-.06066v-.00261a18.226 18.226 0 0 1 -1.96234.8229 35.06472 35.06472 0 0 0 17.53436 4.68428 34.62879 34.62879 0 0 0 6.3301-.56971 12.28138 12.28138 0 0 1 -3.03844 1.70912.062.062 0 0 1 .06331.06066v.00265a.29819.29819 0 0 1 .06329.3798 8.66985 8.66985 0 0 0 1.01282-.1266h.06329a3.17758 3.17758 0 0 0 -.75961.1266c4.49431-1.456 8.79878-4.621 12.34363-15.06567zm-6.14019-20.44619a2.1694 2.1694 0 0 0 -.37981-3.48155 19.73408 19.73408 0 0 0 -2.46874-1.39262c.5064.3165.94951.56971 1.20272.75961a2.04859 2.04859 0 0 1 .91385 2.74924q-.04176.08332-.09095.1626c-11.20427 13.9262-22.15533 21.459-24.814 23.10484a26.23366 26.23366 0 0 1 -5.95029 3.10174 34.55035 34.55035 0 0 1 -11.71068-20.69941c-.31649.18991-.633.31651-.8862.50641a34.81844 34.81844 0 0 0 11.64736 20.5095q-1.13943.28485-2.65865.56971a4.83282 4.83282 0 0 1 .56972.56971l.50639.0633c3.10175-.31651 4.93746-.88621 9.052-3.54485 5.57055-3.73484 13.673-9.55852 25.06722-22.97831z" fill="url(#c)"/><path d="m191.2954 28.10561a35.21911 35.21911 0 0 1 2.34213-12.72349 35.07056 35.07056 0 0 0 -6.77321 20.6994v1.64582a35.67439 35.67439 0 0 1 5.19069-2.34213 49.02522 49.02522 0 0 1 -.75961-7.2796zm16.45824 31.71376a33.71429 33.71429 0 0 1 -14.1794-18.67377 28.08413 28.08413 0 0 0 -5.8237 2.59534 34.52765 34.52765 0 0 0 11.71068 20.7627 29.22164 29.22164 0 0 0 5.95028-3.10174c.5064-.31651 1.26601-.8229 2.34214-1.58253zm31.20736 4.05126a21.03448 21.03448 0 0 1 -2.40542 5.76038c7.8493-4.36776 11.141-7.3429 14.7491-12.85008a39.76941 39.76941 0 0 1 -12.34368 7.0897zm-25.447-1.32932a49.049 49.049 0 0 1 -7.40622 5.12737c-.3165.1266-.44312.25321-.633.31651-.06329 0-.06329.0633-.12662.0633a.062.062 0 0 0 -.06329.06068v.00262a34.79152 34.79152 0 0 0 23.48462 3.73475 23.42255 23.42255 0 0 0 4.81088-6.8365 34.78119 34.78119 0 0 1 -5.76039.44311 37.2605 37.2605 0 0 1 -14.306-2.91184z" fill="url(#d)" opacity=".6"/><path d="m243.45534 31.334a3.16126 3.16126 0 0 1 -.94951-3.79806c.56971-1.01281 1.13941-1.64582 1.64583-2.65864a1.463 1.463 0 0 1 2.59534-.1899 34.83436 34.83436 0 0 0 5.31727 4.36777 71.02534 71.02534 0 0 1 6.26679 3.73475 7.4809 7.4809 0 0 0 -.37982-.82291l-.18988-1.58253c-1.83573-1.70912-3.22835-1.77242-5.19069-2.91184a24.30068 24.30068 0 0 1 -4.55766-3.54485c-.88622-.82291-2.21554-2.15223-1.32932-3.988s2.15222-5.38057 1.96233-7.3429a1.70071 1.70071 0 0 0 -.31652-.82292.47989.47989 0 0 0 -.2532-.1266l-.1899-.1899-1.1394-1.07612a2.79023 2.79023 0 0 1 .44311 1.45592c.12662 1.45593-1.1394 4.93748-2.02563 6.8365-.44312.94952-1.20271 1.266-2.15224.37981a96.94134 96.94134 0 0 1 -7.786-9.11533c-1.83573-2.59534-6.14019-8.22912-11.96387-9.81165l-.50637.0633a14.44354 14.44354 0 0 1 -1.70914-.1266h-.75961a15.46184 15.46184 0 0 1 6.3934 2.65864c2.40542 1.45592 5.12738 4.93747 6.3934 6.7732 1.45589 1.83573 7.46948 9.43184 8.7355 10.508s1.51922 2.40544 1.07613 3.16505c-.37981.75961-1.39262 2.15223-1.83572 2.91184s-1.58254 1.39262-2.91185.1899a81.82022 81.82022 0 0 0 -18.4206-11.83732c-8.79882-3.988-14.306-4.93747-19.87649-4.36776a17.82721 17.82721 0 0 0 -6.4567 2.15223s-.5697.633-.633.69631a1.86916 1.86916 0 0 0 -.44312 1.01281 14.29159 14.29159 0 0 1 7.2796-2.46874c5.38059-.4431 11.90058.82291 19.49668 4.49437a79.53543 79.53543 0 0 1 18.04075 11.58407 2.50208 2.50208 0 0 1 .69632 3.165 29.26949 29.26949 0 0 1 -2.59533 3.48155 2.01444 2.01444 0 0 1 -3.10175.44311 18.42673 18.42673 0 0 0 -11.58406-3.54485c-6.58328 0-11.39417.82291-20.06641 2.91184-7.97592 1.899-14.306 4.93747-16.58485 7.53281l.31651 1.77243c2.78524-2.97514 12.407-6.39339 17.15456-7.46951 5.06409-1.13942 12.59688-2.72194 19.18017-2.65864 6.39341.0633 8.98874 2.15223 10.06485 2.78524a2.16941 2.16941 0 0 1 .37981 3.48155c-11.39418 13.41984-19.49669 19.24357-25.06717 22.91497-4.11456 2.722-5.95029 3.22835-9.052 3.54485l1.51923 1.266c2.34213.1266 4.93747-.94951 8.67224-3.10174 5.44388-3.165 17.78756-13.5464 25.38366-23.16814.88622-1.07611 2.532-1.51922 3.67144.37981 1.39262 2.40543 4.68426 7.91261 1.07612 18.48386-3.54486 10.44465-7.8493 13.6097-12.34367 15.06562 1.1394-.12661 2.27884-.3165 3.41824-.50641 3.67145-1.77243 7.72272-5.69709 10.508-13.8629 3.16505-9.30523 1.96232-16.14173-1.39263-20.9526-1.77241-2.532-1.07612-3.48155-.50639-4.24116.50639-.75961 1.96234-2.532 2.532-3.22835a1.75529 1.75529 0 0 1 2.476-.17692q.06228.054.1193.11362a50.12968 50.12968 0 0 1 7.5328 9.36854c2.46874 4.30445 4.81087 9.17863 3.29166 15.76192v.06331a5.19492 5.19492 0 0 0 .75961-.94951 4.75656 4.75656 0 0 0 .633-1.01282 4.95238 4.95238 0 0 0 .44311-2.21553c-.1266-5.63379-1.01282-8.16583-3.60815-12.59689a46.41528 46.41528 0 0 0 -7.59611-9.05196z" fill="url(#e)"/><path d="m211.42507 74.69508a.47124.47124 0 0 1 -.06329.56971c4.30444.18991 8.54562.37981 12.09048.69632-.06331-.2532.37981-.50641.75961-.633s.5064-.4431.3165-.69631c-.2532-.2532-3.03844-.94952-7.153-1.266-1.70914-.1266-3.79806-.1899-5.31728-.1899a7.28967 7.28967 0 0 0 -1.266.0633c-.94951.06331-.75961.37981-.633.50641.25318.25317 1.0761.63297 1.26598.94947z" fill="url(#f)"/><path d="m187.68723 196.676c-28.92853 0-52.34985-3.48155-52.34985-6.7732v8.0392c0 2.84856 23.42132 5.8237 52.34985 5.8237s52.34987-3.03844 52.34987-5.8237v-8.03921c0 3.22831-23.42134 6.77321-52.34987 6.77321z" fill="url(#g)"/><path d="m187.68723 183.88918c-28.92853 0-52.34985 2.65864-52.34985 5.95028s23.42132 6.77321 52.34985 6.77321 52.34987-3.48155 52.34987-6.77321-23.42134-5.95028-52.34987-5.95028z" fill="url(#h)"/><path d="m230.98507 182.37c0 2.15223-19.4334 3.92466-43.36115 3.92466s-43.36113-1.77241-43.36113-3.92466v6.7732c0 2.34214 19.4334 4.11457 43.42444 4.11457s43.29782-1.899 43.29782-4.24117z" fill="url(#i)"/><path d="m230.98507 182.37c0 2.15223-19.4334 3.92466-43.36115 3.92466s-43.36113-1.77241-43.36113-3.92466 19.4334-3.92467 43.36113-3.92467c23.991 0 43.36115 1.70913 43.36115 3.92467" fill="url(#j)"/><path d="m187.68723 195.91635c-27.78909 0-50.51415-3.22835-52.22327-6.3934a.89966.89966 0 0 0 -.1266.37981c0 3.29165 23.42133 6.7732 52.34987 6.7732s52.34987-3.48155 52.34987-6.7732a.89988.89988 0 0 0 -.12662-.37981c-1.70912 3.10176-24.43414 6.3934-52.22325 6.3934z" fill="url(#k)"/><path d="m187.68723 185.535c-22.53513 0-41.019-1.58252-43.10793-3.54486a.54725.54725 0 0 0 -.18991.37981c0 2.15224 19.43338 3.92467 43.36112 3.92467s43.36114-1.77242 43.36114-3.92467a.54719.54719 0 0 0 -.18989-.37981c-2.21553 1.96234-20.7627 3.54486-43.23453 3.54486z" fill="url(#l)"/><path d="m177.49578 119.32223-2.02564 5.44389-.18989-27.2194a193.25279 193.25279 0 0 0 31.52386 2.532h3.60816a87.51357 87.51357 0 0 0 18.04073-2.15219c-1.70914 7.97592-3.92467 18.294-6.07689 28.86522a15.656 15.656 0 0 0 -15.44542-11.141 19.55514 19.55514 0 0 0 -11.52078 3.73475c-.3165.2532-.633.4431-.94951.69632a3.34348 3.34348 0 0 0 -.69632-1.51922 4.10974 4.10974 0 0 0 -3.35494-1.70912h-9.55844a3.59427 3.59427 0 0 0 -3.35492 2.46875zm33.9926 47.66561a8.9148 8.9148 0 0 0 2.84854-.44312c1.1394-5.95028 2.59534-13.22989 4.17787-21.0159-.69632 1.51923-1.39262 3.10175-2.21555 4.621q-1.899 3.893-3.41824 7.21629a49.76317 49.76317 0 0 0 -2.34213 5.95029 6.50021 6.50021 0 0 0 -.37981 2.59533c.3165 1.07611.50641 1.07611 1.32932 1.07611zm.44308 11.96387c.12662-.633.25321-1.39263.44312-2.27884h-.25321a17.01566 17.01566 0 0 1 -10.00154-3.10175 15.44312 15.44312 0 0 1 -6.20347-8.79881 19.04025 19.04025 0 0 1 1.07612-12.15379c1.45592-3.60816 3.22835-7.27961 5.12738-10.95107 1.899-3.48155 3.54486-6.8365 5.00077-10.00156 1.07612-2.34213 1.45591-4.43106 1.01281-5.887a.99868.99868 0 0 1 -.06331-.25319 2.26326 2.26326 0 0 0 -1.20271-.25319 9.50522 9.50522 0 0 0 -5.31728 2.02562 32.0997 32.0997 0 0 0 -6.6466 6.52 88.14455 88.14455 0 0 0 -6.58328 9.62174c-2.15224 3.54484-4.05126 7.21629-5.7604 10.76115-1.70913 3.60815-3.165 7.02641-4.36776 10.31805a63.67562 63.67562 0 0 0 -2.34214 7.53281l.0633 9.24194a68.353 68.353 0 0 1 -10.38133-.8229c-1.13941-.1899-1.13941-.44312-1.13941-.44312v1.70914c1.96233.56972 7.08971 1.01282 19.81319 1.01282 28.80192 0 27.78911-1.58252 27.78911-1.64582v-2.15223zm-36.71452-100.07871v2.65863c11.90057 2.65864 23.92773 4.93748 35.06871 5.12738h1.45592a94.70869 94.70869 0 0 0 19.74989-2.02562 12.40141 12.40141 0 0 1 .56972-1.899 2.63165 2.63165 0 0 0 1.58252-2.34213c.12661-1.77243-1.13941-2.72195-2.91184-3.22835-4.49437-1.32933-17.47105-1.77243-28.1056-2.02563s-25.82677.50641-26.713.5697a1.75689 1.75689 0 0 0 -1.77242 1.70913 1.72559 1.72559 0 0 0 1.0761 1.45589z" fill="url(#m)"/><path d="m175.78667 178.8251v2.532c-6.26678-.18989-11.45747-.69632-11.45747-1.266s5.12738-1.0761 11.45747-1.266z" fill="url(#n)"/><path d="m175.78667 180.66081a80.52619 80.52619 0 0 1 -10.82446-.88621c-.44312.12661-.633.2532-.633.31651 0 .5697 5.254 1.07613 11.45748 1.266z" fill="url(#o)"/><path d="m212.248 74.82169a.38312.38312 0 0 1 -.06331.50641c.88621.06331 1.83572.06331 2.72194.1266v-.0633c-.1899-.31651-.88622-.633-1.13941-.8862-.12662-.12661-.2532-.37981.5697-.44311a48.475 48.475 0 0 1 5.7604.18991c1.266.0633 2.40542.2532 3.35493.37981a28.129 28.129 0 0 0 -5.95029-.94952c-1.51922-.1266-3.35493-.1899-4.68426-.1899h-1.07613c-.8229.0633-.633.31649-.5697.4431.18991.25319.88621.5697 1.07613.8862z" fill="url(#p)" opacity=".6"/><path d="m206.93071 115.58748a19.68148 19.68148 0 0 0 -10.82446 3.22835l1.32933-18.99028q4.46273.18991 9.30524.18991h3.60818a87.51356 87.51356 0 0 0 18.04076-2.15223c-1.70914 7.97592-3.92467 18.294-6.07689 28.86522a15.65207 15.65207 0 0 0 -15.38213-11.141zm4.55767 51.40036a8.9148 8.9148 0 0 0 2.84854-.44312c1.1394-5.95028 2.59534-13.22989 4.17787-21.0159-.69632 1.51923-1.39262 3.10175-2.21555 4.621q-1.899 3.893-3.41824 7.21629a49.76317 49.76317 0 0 0 -2.34213 5.95029 6.50021 6.50021 0 0 0 -.37981 2.59533c.3165 1.07611.50641 1.07611 1.32932 1.07611zm-1.20272-80.39218h1.45592a94.70859 94.70859 0 0 0 19.74989-2.02566 12.40141 12.40141 0 0 1 .56972-1.899c0-.0633.25321-1.899-2.72192-2.46873-1.58254-.3165-10.82446-1.70912-25.95339-1.83572h-4.43107l-.5064 7.34292a109.88339 109.88339 0 0 0 11.83727.88619zm1.6458 92.35605c.12662-.633.25321-1.39263.44312-2.27884h-.25321a17.01566 17.01566 0 0 1 -10.00154-3.10175 15.44312 15.44312 0 0 1 -6.20347-8.79881 19.04025 19.04025 0 0 1 1.07612-12.15379c1.45592-3.60816 3.22835-7.27961 5.12738-10.95107 1.899-3.48155 3.54486-6.8365 5.00077-10.00156 1.07612-2.34213 1.45591-4.43106 1.01281-5.887a.99868.99868 0 0 1 -.06331-.25319 2.26326 2.26326 0 0 0 -1.20271-.25319 9.50522 9.50522 0 0 0 -5.31728 2.02562 32.44208 32.44208 0 0 0 -6.3934 6.20349l-3.48155 49.24812c21.1425-.2532 20.3196-1.58252 20.3196-1.58252v-2.21553z" fill="url(#q)"/><path d="m197.49888 99.82556-1.32932 18.99027a2.81132 2.81132 0 0 0 -.69632.50641c-.3165.2532-.633.44311-.94951.69632a3.34349 3.34349 0 0 0 -.6963-1.51922 4.10978 4.10978 0 0 0 -3.35494-1.70912h-9.55849a3.75781 3.75781 0 0 0 -3.41825 2.532l-2.02563 5.44389-.1899-27.2194a200.56669 200.56669 0 0 0 22.21866 2.27885zm.94952-14.05282.50639-7.34291c-11.52078-.0633-15.572.2532-23.04153.633a2.72042 2.72042 0 0 1 -.75961-.12661v2.65864c7.84935 1.64585 15.69863 3.22837 23.29475 4.17788zm-3.60815 48.04541a88.14459 88.14459 0 0 0 -6.5833 9.62173c-2.15222 3.54485-4.05126 7.21629-5.76038 10.76115-1.70914 3.60816-3.165 7.02642-4.36777 10.31806a63.67446 63.67446 0 0 0 -2.34214 7.53281l.0633 9.24194a68.35217 68.35217 0 0 1 -10.38134-.82291c-1.13941-.18989-1.13941-.44311-1.13941-.44311v1.70918c1.83573.56972 7.08971 1.01282 19.81319 1.01282 2.78523 0 5.254 0 7.4695-.06329l3.48156-49.24813a3.75192 3.75192 0 0 1 -.25323.3798z" fill="url(#r)" opacity=".5"/><path d="m190.53577 113.56185c0-.0633 0-.0633.06331-.1266-.12662-.0633-.12662-.1899-.12662-.3165l.0633-.633c0-.1266.12661-.2532.2532-.37981h-.06329c-.12662-.0633-.12662-.1899-.12662-.3165l.06329-.633c0-.37981.69631-.633 1.266-.633a2.02408 2.02408 0 0 1 1.1394.3165c.12662.1266.12662.18991.12662.25319l-.06331.633a.34814.34814 0 0 1 -.18989.31651h-.06331c.06331 0 .06331.0633.12662.0633.12661.1266.12661.18991.12661.2532l-.06329.633a.34813.34813 0 0 1 -.1899.31651h-.06329v.1266a3.236 3.236 0 0 0 .5697 1.83572 12.51361 12.51361 0 0 0 3.03844 2.46873c.2532.1899.44311.3165.633.4431-.56971.31651-1.07612.69632-1.64582 1.07612l-.0633.0633c-.88621-.633-2.46873-1.77243-2.91185-3.165a5.88376 5.88376 0 0 1 -.2532-1.70913.48348.48348 0 0 1 -.31651.1266h-.3165a.48351.48351 0 0 1 -.3165-.1266l-.06331-.0633a8.15788 8.15788 0 0 1 -.3165 1.51921 2.13933 2.13933 0 0 1 -.3798.75962h-2.21556a7.11874 7.11874 0 0 0 1.20271-1.01282 2.63478 2.63478 0 0 0 1.07617-2.08895zm32.85317 3.988a2.75127 2.75127 0 0 0 -.37981.44311 5.91126 5.91126 0 0 0 -1.266 2.40544.57072.57072 0 0 1 .0633-.31651 3.34111 3.34111 0 0 0 -.25321-2.08893l-.18989-.56971a6.051 6.051 0 0 1 -.5064-1.70912 10.19149 10.19149 0 0 1 .25321-2.34214l.06329-.25319a.23255.23255 0 0 0 -.06329-.18991l-.12662-.0633c-.06331 0-.12662-.06331-.1899 0v-.06331a.062.062 0 0 1 .06331.06067v.00264a.22337.22337 0 0 0 .25321.0633.29242.29242 0 0 0 .18989-.31651l.12662-.633c0-.1266 0-.2532-.12662-.3165l-.06329-.06331h.06326a.29242.29242 0 0 0 .18989-.3165l.12662-.633c0-.1266 0-.2532-.12662-.31651a1.2522 1.2522 0 0 0 -.88621-.3165c-.5064 0-1.07613.3165-1.13941.633l-.12661.633a.22971.22971 0 0 0 .10524.30734l.02137.00915h.0633c-.12662.12661-.25321.18991-.25321.31652l-.12661.633a.2297.2297 0 0 0 .10527.30735l.02134.00915h.06331l-.06331.06331a.13614.13614 0 0 0 -.12661.1266c-.1899 1.58252-.94951 2.78523-2.72193 4.24115a5.70761 5.70761 0 0 0 -.633.56971 12.8366 12.8366 0 0 1 1.1394.8229 4.44471 4.44471 0 0 1 .56972-.3798 6.25552 6.25552 0 0 0 2.15222-4.30446.32892.32892 0 0 0 .2532.1266h.37981a6.99526 6.99526 0 0 0 -.3165 2.34213 5.25225 5.25225 0 0 0 .633 2.59534 2.77534 2.77534 0 0 1 .44311 1.64583c0 .06331 0 .1266.06331.1266s.0633.06331.12662.06331c-.2532.1266-.44312.3165-.44312.5064l-.12661.633v.18992a.13614.13614 0 0 0 -.12662.1266.47841.47841 0 0 1 -.06329.25319c.18989.3165.44311.633.633 1.01282h.18993a.42058.42058 0 0 0 .31651-.25319v.0633a6.108 6.108 0 0 0 0 1.07611 13.25727 13.25727 0 0 1 .82291 2.21554l.2532-1.266a6.59116 6.59116 0 0 1 -.37981-1.01282 9.68854 9.68854 0 0 1 -.06329-1.899c0-.0633-.06331-.12661-.12662-.18991a.48.48 0 0 0 .12662-.25319l.12662-.633c0-.1266 0-.31651-.12662-.3798l-.06331-.0633.06331-.06331.06329-.18991a4.01425 4.01425 0 0 1 1.70914-2.02562c.06331 0 .06331-.06331.12662-.12661l.56972-2.65863c-.633.75952-.88623 1.13932-1.32935 1.58243zm-17.471-2.21553c-.12661.1266-.2532.18991-.3798.31651a10.25615 10.25615 0 0 1 1.39262-.06331h.3165v-.0633a4.0704 4.0704 0 0 0 .2532-1.39261c.0633 0 .12662.0633.1899.0633h.31651a.45118.45118 0 0 0 .37981-.18991 7.03148 7.03148 0 0 0 -.06331 1.64583l1.51922.18991a4.44286 4.44286 0 0 1 -.3798-.56971 4.969 4.969 0 0 1 -.3165-2.27883c0-.06331 0-.06331-.06331-.12661a.34811.34811 0 0 0 .1899-.31649l.06329-.633a.40908.40908 0 0 0 -.12662-.31651.2209.2209 0 0 0 -.12661-.0633h.12661a.34809.34809 0 0 0 .1899-.31652l.06329-.633a.40912.40912 0 0 0 -.12661-.3165 1.377 1.377 0 0 0 -1.07613-.31651c-.5697 0-1.266.31651-1.32932.633l-.0633.633c0 .18991.0633.31651.12661.31651h.06331c-.12662.1266-.2532.1899-.2532.3165l-.06331.633c0 .18991.06331.31651.12662.31651h.0633v.06331a3.00019 3.00019 0 0 1 -1.01281 2.46869zm-15.69862-6.52c.3165.69632.5697 1.32933.6963 1.64582a.13615.13615 0 0 0 .12662.12661h.1899a1.26144 1.26144 0 0 1 .50639-.12661c.06331 0 .12662 0 .12662-.0633.06331.0633.06331.0633.12661.0633a1.91448 1.91448 0 0 1 .633.12661c.12662 0 .1899 0 .2532-.12661a10.78578 10.78578 0 0 1 1.07613-1.83571 21.42269 21.42269 0 0 0 2.78523-5.50718c.1899-.69631.44312-1.83572.75962-3.29164-.44312 0-.88622-.06331-1.266-.06331-.44312 1.64583-.82291 3.10174-1.1394 3.92466a59.48332 59.48332 0 0 1 -3.165 6.39339 10.491 10.491 0 0 0 -.75961-2.27884 20.9791 20.9791 0 0 1 -1.58252-5.50718c-.06331-.75961-.1899-1.83571-.31651-3.03845-.44312-.0633-.88622-.0633-1.266-.1266.12662 1.32933.2532 2.532.37981 3.41825a17.89792 17.89792 0 0 0 1.83558 6.26676zm29.56152 1.07611a.22109.22109 0 0 0 .06331.12661h.18991a1.46411 1.46411 0 0 1 .56972-.12661.16786.16786 0 0 0 .1899-.18991c0-.75959 0-1.899.0633-3.41824 0-1.45592 0-3.10174.0633-4.87417 0-.5697.06331-1.39261.12661-2.27884-.44311.06331-.8229.1266-1.266.18991q-.095 1.32935-.1899 2.27883c-.06341 3.54482.0632 6.96307.18982 8.29239zm-11.20427-.1266v.18991c0 .0633.06331.0633.12662.0633a1.61024 1.61024 0 0 1 .44312.12661c.06329 0 .06329.0633.12661 0 .0633 0 .0633-.06331.12662-.06331a34.01627 34.01627 0 0 0 3.73476-7.0897c.18989-.69631.50639-1.77242.94951-3.165-.37981 0-.75962.0633-1.20272.0633-.3798 1.20272-.75961 2.40544-1.1394 3.355a72.43936 72.43936 0 0 1 -3.16516 6.51986zm-2.78523-9.685v1.96234a29.3973 29.3973 0 0 0 1.70914 7.97592.32885.32885 0 0 0 .2532.1266 2.37161 2.37161 0 0 1 .5064-.06331c.06329 0 .12661 0 .12661-.0633.0633-.06331.0633-.06331.0633-.1266a11.98582 11.98582 0 0 0 -.44312-2.02563 27.86877 27.86877 0 0 1 -.94952-5.95028v-1.77243h-.25321a5.44491 5.44491 0 0 0 -1.01283-.06338zm8.35571 63.744a6.05145 6.05145 0 0 1 -.3798-3.35493 1.23571 1.23571 0 0 1 .06329-.44312c0-.06331-.06329-.12662-.12662-.1899a.47978.47978 0 0 0 .12662-.2532l.12662-.633c0-.12661 0-.31649-.12662-.3798-.06329-.0633-.12662-.0633-.12662-.12662a.23253.23253 0 0 1 .1899.06331h.18989c.06331 0 .06331-.06331.12662-.12662a4.55816 4.55816 0 0 1 .94953-1.70913 7.28357 7.28357 0 0 0 1.1394-1.45592l.56972-.633.88621-4.55766a32.20023 32.20023 0 0 1 -2.532 4.49435 8.08462 8.08462 0 0 0 -1.51922 2.59534 3.4414 3.4414 0 0 0 0-1.1394 16.19257 16.19257 0 0 0 -.69631 1.51922 1.89549 1.89549 0 0 1 -.2532.5064.80257.80257 0 0 1 -.06331.3798v.12662a1.18675 1.18675 0 0 0 -.37981.44311l-.1266.633a.34968.34968 0 0 0 .1266.37981l-.1266.06331c-.06331 0-.06331.06329-.06331.12661a10.23277 10.23277 0 0 1 -1.77241 3.988 3.86818 3.86818 0 0 0 -.12662 1.83572c0 .0633.06331.12662.06331.1899a7.28946 7.28946 0 0 0 .88622-1.266 12.78 12.78 0 0 0 1.266-3.79806.23252.23252 0 0 0 .1899.06329h.18989a.48.48 0 0 0 .25319-.1266 6.3341 6.3341 0 0 0 .1899 3.03844c.2532.69632.94951 1.96232 1.07612 2.59533h.06331l.37981-1.83572a11.68991 11.68991 0 0 1 -.633-1.01293zm-33.10638-3.67146c.06331.06329.12662.12661.18989.06329a1.67005 1.67005 0 0 1 .44312-.06329.22112.22112 0 0 0 .12662-.06331c0-.06329.06331-.12662 0-.12662a5.40037 5.40037 0 0 0 -1.07613-2.08891c-.18989.44311-.37981.94951-.56972 1.39262a3.85545 3.85545 0 0 1 .88619.88619zm36.58794-10.318.5697-2.84854a1.84829 1.84829 0 0 0 -.12662-.5697c-.2532.50641-.50639 1.07611-.75961 1.58252a7.61716 7.61716 0 0 1 .31648 1.83563zm3.22839-40.19607v.1899c0 .06331.0633.06331.12662.06331a1.31244 1.31244 0 0 1 .37981.1266.196.196 0 0 0 .12661.0633.22089.22089 0 0 0 .12662-.0633 35.37079 35.37079 0 0 0 3.165-7.2163c0-.06331.44311-1.899 1.01281-4.36776-.31649.0633-.6963.1266-1.01281.18991-.37981 1.58252-.82291 3.10173-1.20272 4.49436a68.5269 68.5269 0 0 1 -2.722 6.51988zm-19.93988-23.6113c.6963-1.96233 1.899-4.93747 2.91183-4.81087.88622.06331 1.51923 2.532 1.77242 5.19068.44311 0 .88621.06331 1.32933.06331-.12662-1.58252-.633-4.93748-1.96234-6.14019a1.52545 1.52545 0 0 0 -1.13941-.4431c-1.51921.0633-3.03843 3.10173-4.11456 6.01358.37982.06324.75961.06324 1.20273.12659zm-25.06712 24.87722v.1266h-.44311v4.11457h.18989a.42745.42745 0 0 0 .37981-.2532 6.68813 6.68813 0 0 0 .18989 1.83572 4.9908 4.9908 0 0 0 1.51923 2.15223 3.80568 3.80568 0 0 1 1.266-1.39262 9.25582 9.25582 0 0 1 -1.77242-1.58252 3.11957 3.11957 0 0 1 -.50639-1.83573c0-.0633 0-.1266-.0633-.1266a.372.372 0 0 0 .12662-.3165l.06329-.633a.25271.25271 0 0 0 -.12661-.25319.22092.22092 0 0 0 -.12662-.0633h.12662a.29243.29243 0 0 0 .18989-.31652l.0633-.633a.25275.25275 0 0 0 -.12662-.2532.221.221 0 0 0 -.12662-.0633.062.062 0 0 0 .06331-.06066v-.00265a14.85727 14.85727 0 0 1 .6963-1.51921 25.49824 25.49824 0 0 0 2.02564-5.63377c.18989-1.07612.50639-3.29165.82291-5.69709l-1.13941-.1899a48.184 48.184 0 0 1 -1.07612 6.20349c-.63301 2.27879-2.21548 6.39335-2.21548 6.39335zm42.22173-24.49747c.8229-2.46873 1.70913-5.19068 2.84854-5.12738.88621.0633.69632 2.40544.56971 4.30446a1.39349 1.39349 0 0 1 -.0633.50641c.3798-.06331.75961-.06331 1.1394-.1266v-.44311c.06331-1.70912.1899-4.11455-.75961-5.00076a1.43762 1.43762 0 0 0 -1.01282-.37981c-1.70914.0633-2.97514 2.97515-4.05125 6.26678a9.318 9.318 0 0 0 1.32927 0zm-9.875 89.88731c.18989.56972.50639 1.01282 1.1394.94952a2.31439 2.31439 0 0 0 1.1394-.633 9.85956 9.85956 0 0 1 -2.27882-.31653zm-2.59534-.7596-.50639.633c-1.266 1.64583-1.39263 1.77241-2.34214 1.83572-1.01281 0-1.45591-.8229-2.21553-2.40542l-.2532-.5064a6.45882 6.45882 0 0 1 -.56972-3.41824.55142.55142 0 0 1 -.50639.37981h-.3165a.48345.48345 0 0 1 -.3165-.12662 7.67309 7.67309 0 0 1 -1.83572 3.54486c-1.77242 2.21553-2.72193 3.165-3.798 3.22835-1.07613 0-2.84854-1.64583-3.86136-3.60816a8.38575 8.38575 0 0 1 -.88622-3.48155 1.37992 1.37992 0 0 1 -.0633.37981.43268.43268 0 0 1 -.422.44311q-.01058.00026-.02113 0h-.31651a.48343.48343 0 0 1 -.3165-.12662c-.06329-.06329-.06329-.06329-.06329-.12661a8.92091 8.92091 0 0 1 -1.64583 3.79806c-1.70914 2.21553-2.84854 3.10175-3.92467 3.10175-1.07613.06329-2.72192-1.77242-3.86136-3.54486a7.97723 7.97723 0 0 1 -1.20271-3.35494.42333.42333 0 0 1 -.44312.37981v-.633c.31652-1.45591.82291-3.10174 1.45592-5.06407.5697-.50639 1.32932-1.266 2.02564-1.899l.50639-.50639a3.46294 3.46294 0 0 0 1.01282-2.532v-.06329a.34808.34808 0 0 1 -.1899-.31652v-.633c0-.37981.633-.633 1.266-.69631.5697 0 1.266.25321 1.266.56972v.633a.48359.48359 0 0 1 -.12661.31651.196.196 0 0 0 -.12662.06329.221.221 0 0 1 .06329.12662 3.39488 3.39488 0 0 0 .82291 2.46873 31.72265 31.72265 0 0 1 2.532 2.532 7.41111 7.41111 0 0 1 1.266 2.15224 6.53426 6.53426 0 0 1 1.32932-2.08891c.50639-.5064 1.70914-1.45592 2.72194-2.34214l.5697-.50639a3.83043 3.83043 0 0 0 1.20271-2.59535c0-.0633 0-.0633.06331-.12662h-.06331c-.12661-.06329-.12661-.1899-.12661-.3165l.0633-.633c.0633-.37981.69631-.633 1.32932-.633a1.75247 1.75247 0 0 1 .56972.06331 16.00506 16.00506 0 0 0 .5697 4.93745 12.7952 12.7952 0 0 0 .6963 2.02564.8734.8734 0 0 0 -.2532-.1899l-.1899-.12661c-1.20271-1.07613-1.1394-2.91184-1.07612-4.05126-.06331.12662-.25321.1899-.37981.25321h-.31651c-.12662 0-.1899-.06331-.3165-.12662a4.8922 4.8922 0 0 1 -.44312 2.02563 15.2985 15.2985 0 0 1 -3.67143 3.60816 3.6149 3.6149 0 0 0 -1.51922 1.45591l-.0633.12662a.58135.58135 0 0 1 .37981.25321c.12662.12661.12662.18989.12662.2532l-.0633.633a.4835.4835 0 0 1 -.12661.31649.062.062 0 0 0 .06066.06331h.00263a8.099 8.099 0 0 0 1.266 3.03844.32886.32886 0 0 1 .12661.2532.87406.87406 0 0 1 .1899.25321c1.51922 2.532 2.15222 3.10174 2.46873 3.10174.69631 0 2.08892-1.96232 2.59534-2.72192l.12662-.12662a4.61854 4.61854 0 0 1 .56971-.6963 10.01514 10.01514 0 0 0 1.899-3.03844.22106.22106 0 0 1 .06331-.12662l.2532-.12661h.12662c.06329 0 .06329.06331.12661.12661v.06331a2.74188 2.74188 0 0 1 .0633-.31651c-.0633 0-.0633.06331-.12662.06331a.23251.23251 0 0 1 -.18989.06329c-.06331 0-.12662 0-.12662-.06329a.372.372 0 0 1 -.12662-.31651l.12662-.633a.062.062 0 0 1 .06068-.06329h.00261a13.114 13.114 0 0 0 2.532 2.78523 14.29805 14.29805 0 0 0 .633 1.96233 1.06962 1.06962 0 0 0 .12662.31649c.1899.633.82291 2.40543 1.39263 2.40543.50639 0 .8862-.69631 1.32931-1.32932a5.28265 5.28265 0 0 1 .50639-.75961c.1268-.25326.4433-.12671.82309.0632zm-18.73706-5.887a6.50451 6.50451 0 0 0 -1.64581-1.64581 7.71856 7.71856 0 0 1 -2.59534-2.91185 3.88675 3.88675 0 0 1 -.31651-2.21553.23254.23254 0 0 1 -.1899.06329h-.31651a.48343.48343 0 0 1 -.3165-.12662 5.24292 5.24292 0 0 1 -.25321 1.96234 12.73649 12.73649 0 0 1 -3.29165 3.60816 3.4854 3.4854 0 0 0 -1.32932 1.39262l-.06331.12662a.45774.45774 0 0 1 .25321.37981v.633a.4835.4835 0 0 1 -.12662.31651.22106.22106 0 0 1 .06331.12662 9.2175 9.2175 0 0 0 1.51923 3.165 3.74842 3.74842 0 0 0 .2532.37981l.06329.06331c1.83573 2.97514 2.532 3.22835 2.72193 3.22835.75961 0 2.21554-2.08892 2.72192-2.78523l.12662-.1899c.69632-.94952 2.08893-2.84856 2.27884-3.988 0-.06331 0-.06331.06331-.06331h-.06331c-.12662-.06329-.12662-.18989-.12662-.31649l.06331-.633c-.06329-.25314.18993-.44307.50642-.56969zm-3.73476-86.469c.44312-1.13942.94951-1.77243 1.39263-1.77243h.0633c.56971.06331 1.07613 1.07612 1.45592 2.34214a8.96233 8.96233 0 0 1 1.266.25319c-.50639-1.83573-1.32932-3.60814-2.72193-3.60814-.94952.0633-1.77241 1.07611-2.40542 2.59533.25317.06325.633.12655.94948.18985zm12.97669 59.18636v-.06329c.06331 0 .06331-.06331.12661-.06331 0 .06331-.06329.88621-.06329.88621 0 .12661 0 .25321.12662.31652a.48351.48351 0 0 0 .3165.1266h.31651a.43268.43268 0 0 0 .44311-.422q.00026-.01055 0-.02109a6.46124 6.46124 0 0 0 .1899 2.65865 5.30212 5.30212 0 0 0 1.39262 2.02563c.25321-.56971.56972-1.13942.82291-1.70913a3.48 3.48 0 0 1 -.44311-.56971 5.17547 5.17547 0 0 0 -.5064-.5697 3.44844 3.44844 0 0 1 -.8862-2.532c0-.06331 0-.06331-.06331-.12661h.06331a.29241.29241 0 0 0 .1899-.31651l.06331-.633a.40913.40913 0 0 0 -.12662-.31651c-.06331-.1266-.25321-.18989-.44312-.2532a.221.221 0 0 0 .12662-.0633 2.9396 2.9396 0 0 1 1.13941-1.01281c.18989-.12661.44311-.25321.6963-.44312l.2532-.18989c1.07613-.69632 3.54486-2.34214 4.11457-3.92467a8.15875 8.15875 0 0 0 .31651-1.51923.48346.48346 0 0 0 .3165.1266h.31651a.53712.53712 0 0 0 .50639-.4431.48987.48987 0 0 1 .0633-.18989 17.02117 17.02117 0 0 0 -.12662 1.96232c.2532-.56971.50639-1.07612.75961-1.64582v-.88622c0-.06329 0-.06329-.06329-.1266a.32888.32888 0 0 0 .12662-.25321l.12661-.633a.40912.40912 0 0 0 -.12661-.3165.97338.97338 0 0 0 -.37981-.2532 4.54691 4.54691 0 0 1 1.899-1.51923 8.60292 8.60292 0 0 0 .37981-2.40544c-.06329 0-.06329.06331-.12662.1266-.50639.44311-.94951.82292-1.266 1.07613a5.322 5.322 0 0 0 -1.70914 2.08893 5.59569 5.59569 0 0 0 -2.59534-3.48156.32885.32885 0 0 0 -.2532-.1266c-.25321.1899-.56971.37981-.82291.5697a9.253 9.253 0 0 1 -.82291.56971 2.47843 2.47843 0 0 0 .633.50642c2.46873 1.77241 2.46873 1.77241 2.97514 2.59534 0 .06329.06331.06329.12662.1266-.2532.1266-.50639.2532-.50639.4431l-.12662.633a.22973.22973 0 0 0 .10527.30736l.02135.00916c-.0633.06329-.0633.06329-.0633.1266a2.93157 2.93157 0 0 1 -1.1394 2.21553 22.59053 22.59053 0 0 1 -2.78523 2.15224c-.37981.2532-.69631.50639-.94951.6963a5.347 5.347 0 0 0 -1.96233 2.65865 3.60066 3.60066 0 0 0 -1.83572-2.65865 22.236 22.236 0 0 1 -2.02564-1.64583c-.31651.44312-.69632.94953-1.01281 1.39263a7.92892 7.92892 0 0 0 1.83572 1.58252c.31651.2532.633.3798.88622.56971a3.29427 3.29427 0 0 1 1.32931 1.13942.23253.23253 0 0 0 .1899.0633h.18991c-.37981.1266-.75962.31651-.75962.56971l-.06329.633c0 .1266 0 .2532.12662.31651a.221.221 0 0 0 -.06331.12661 3.77789 3.77789 0 0 1 -1.32932 2.46873c-.6963.50641-1.64582 1.32931-2.532 2.08893-.56971.50641-1.07613.88621-1.39263 1.13942a4.49258 4.49258 0 0 0 -1.39262 1.899 6.72453 6.72453 0 0 0 -1.32933-1.96233 17.46454 17.46454 0 0 1 -1.32932-1.20271h-.06329c-.31651.50641-.56972 1.01282-.88622 1.51923.44312.31651.82291.633 1.20272.88621a4.83357 4.83357 0 0 1 1.64583 1.39263c.06329.06329.12661.1266.18989.06329a1.6704 1.6704 0 0 1 .44312-.06329h.12661a1.4276 1.4276 0 0 1 .44312.1266c.06331.06329.18989 0 .2532-.06331a3.89779 3.89779 0 0 1 1.58254-1.32932c1.1394-.5697 3.73475-2.65864 4.30444-3.92465a5.904 5.904 0 0 0 .56958-3.10185zm33.3596-57.35063a15.13486 15.13486 0 0 1 2.21554-3.41819 1.07012 1.07012 0 0 1 -.31651-.1266 12.02571 12.02571 0 0 0 -3.03844 3.79805 7.35947 7.35947 0 0 1 1.13939-.25326zm-47.3491 75.07481a1.67 1.67 0 0 1 .44312.06331h.06329c.06331 0 .12662-.06331.1899-.12662a4.47017 4.47017 0 0 1 1.58252-1.45592l.06331-.06329c.5697-.37981 3.10174-2.34213 3.60815-3.988a6.60627 6.60627 0 0 0 .3165-1.32931.48358.48358 0 0 0 .31651.1266h.3165a.54712.54712 0 0 0 .37981-.1899 5.116 5.116 0 0 0 .2532 1.58252 5.95555 5.95555 0 0 0 2.40543 2.97515 5.64372 5.64372 0 0 1 1.96232 1.899c.06331.06331.12662.12662.25321.06331a1.66994 1.66994 0 0 1 .44311-.06331c.06331 0 .12662 0 .12662-.0633s.06331-.0633.06331-.12661a.38055.38055 0 0 0 -.06331-.25321 3.56924 3.56924 0 0 0 -1.58252-2.65864 12.45368 12.45368 0 0 1 -2.65864-2.532 3.065 3.065 0 0 1 -.5064-1.64581c0-.06331-.06329-.12661-.1266-.18991l-.1899-.0633h-.12661v-.06331a.22106.22106 0 0 1 .12661.06331.28252.28252 0 0 0 .3165 0 .29241.29241 0 0 0 .1899-.31651l.06329-.633a.2527.2527 0 0 0 -.1266-.2532 1.87957 1.87957 0 0 0 -1.13941-.3165c-.56971 0-1.266.3165-1.266.633l-.06331.633a.48348.48348 0 0 0 .12662.3165.28254.28254 0 0 0 .31651 0c.06329 0 .06329-.06329.12662-.06329v.06329h-.12662l-.1899.06331a.13615.13615 0 0 0 -.12661.1266 2.83511 2.83511 0 0 1 -1.01282 2.02564 33.08131 33.08131 0 0 1 -3.10175 2.84854 4.39188 4.39188 0 0 0 -1.77241 2.72194c0 .06329 0 .12661.06331.12661-.06337.06331-.00006.06331.06324.06331zm12.85007-.37979a1.10832 1.10832 0 0 1 .31651.0633 14.39963 14.39963 0 0 1 .12662-1.64582 4.36215 4.36215 0 0 0 -.633 1.39262c0 .06329 0 .12662.06329.12662a.22107.22107 0 0 0 .12657.06331z" fill="url(#s)"/><path d="m206.23439 133.43834c-.12661.3165-.31649.633-.44311.94951a10.98816 10.98816 0 0 1 .2532-2.21553l.1899.06331a3.71168 3.71168 0 0 0 .00001 1.20271zm-.8229-2.65865c-.56972 0-1.13941.25321-1.13941.50641-.0633.18991-.0633.56972-.12661.633 0 .06331 0 .2532.18989.1266a2.346 2.346 0 0 1 .94953-.3165 1.137 1.137 0 0 1 .8229.25321c.12662.1266.1899-.06331.1899-.12661a5.30118 5.30118 0 0 1 .12662-.633c.0633-.1899-.44312-.44311-1.01282-.44311zm-16.77475 19.30678a1.26163 1.26163 0 0 1 .50639-.1266 4.94913 4.94913 0 0 0 -1.39262-2.27882 17.46678 17.46678 0 0 1 -1.32932-1.20272c-.2532.37981-.44311.82292-.6963 1.20272a6.42848 6.42848 0 0 0 1.20271.88621 6.10781 6.10781 0 0 1 1.70914 1.51923zm24.37086 7.91261a1.35607 1.35607 0 0 1 .37981-.0633 10.483 10.483 0 0 0 .2532-2.08892c-.18989.44312-.3798.82291-.56971 1.266a4.48467 4.48467 0 0 1 -.0633.88623zm7.786-42.53822a15.67927 15.67927 0 0 1 .2532-2.59534l-.12661-.0633a9.0005 9.0005 0 0 0 -.633 3.355 5.98545 5.98545 0 0 0 .56972 2.59533 2.85051 2.85051 0 0 1 .44311 1.70913.43836.43836 0 0 1 .31652 0 4.48 4.48 0 0 0 -.1899-2.65864 10.7355 10.7355 0 0 1 -.633-2.34217zm-21.83881 29.245a3.59417 3.59417 0 0 1 -.94952-2.65865l-.12662-.06331a8.505 8.505 0 0 0 .12662 3.29166 4.73323 4.73323 0 0 0 1.32931 1.899c.1899-.44311.44312-.88621.633-1.39262a13.96813 13.96813 0 0 1 -1.01279-1.076zm-1.39261-2.84856c0-.06329-.18989-.1266-.44311-.1266s-.50639.1266-.50639.18991-.0633.88621-.0633.88621a.23187.23187 0 0 0 .25321.25321h.31649a.42058.42058 0 0 0 .31652-.25321 4.88646 4.88646 0 0 1 .12658-.94946zm3.60814-14.306c.12662.1266.3165.2532.44312.37981 2.532 1.77243 2.532 1.77243 2.97514 2.65864a1.69577 1.69577 0 0 1 .56972-.1266 5.25723 5.25723 0 0 0 -2.59534-3.79806c-.06331 0-.06331-.0633-.12662-.0633a9.65575 9.65575 0 0 0 -1.01281.69631.49408.49408 0 0 1 -.25321.25325zm4.05127 5.69708a.42062.42062 0 0 0 .31652-.2532s.18989-.82292.18989-.88622-.18989-.1266-.44311-.1266-.5064.1266-.5064.1899-.06331.88621-.06331.88621c0 .1266.06331.25321.1899.25321zm-5.44388 5.50719c.82291-.5697 3.73476-2.27882 4.30445-3.988a6.7514 6.7514 0 0 0 .31651-2.532l-.18989.06329a3.56471 3.56471 0 0 1 -1.13941 2.34213 31.27016 31.27016 0 0 1 -3.798 2.84854 4.57932 4.57932 0 0 0 -1.899 2.65865 2.371 2.371 0 0 1 .5064.06331c.37973-.69626.94943-.82286 1.899-1.45587zm21.20582-16.71145h-.12662c0 .18991-.12662.50641-.1899.94952.06331.1266.12662.1899.1899.31649.06331-.56964.12662-1.01275.12662-1.266zm.44308 1.01282a.28254.28254 0 0 0 .1899-.2532s.18989-.82291.18989-.88621-.12662-.1266-.2532-.1266-.3165.1266-.3165.18991-.12662.88621-.12662.88621c0 .1266 0 .2532.12662.2532zm-27.21939 15.50873c1.07612.69631 1.77241.88622 2.21553 1.77243a2.7821 2.7821 0 0 1 .5697-.0633 3.45826 3.45826 0 0 0 -1.77244-2.7219c-.56971-.4431-1.32932-1.01282-2.02564-1.64583-.2532.37981-.56972.75962-.82291 1.13942a15.25776 15.25776 0 0 0 1.83576 1.51923zm27.5992-17.97747a.76359.76359 0 0 0 -.69631.50641 3.64419 3.64419 0 0 0 -.12662.633c0 .0633-.0633.25319.0633.1266a.8024.8024 0 0 1 .56972-.2532.45561.45561 0 0 1 .44311.2532c.06331.1266.12662-.06331.12662-.1266a5.30111 5.30111 0 0 1 .12662-.633c.06327-.25315-.18993-.50636-.50643-.50636zm-4.30442 29.94139a12.73425 12.73425 0 0 1 -2.02563 3.73475 7.35978 7.35978 0 0 0 -1.77242 3.60816 1.77148 1.77148 0 0 1 .37981.06329c.31651-1.32931 1.96233-2.40543 2.78523-3.988zm-4.87417 8.79882a.80235.80235 0 0 1 .5697-.2532.45566.45566 0 0 1 .44311.2532c.0633.12662.12662-.06329.12662-.12661a5.30292 5.30292 0 0 1 .12662-.633c.06329-.18989-.1899-.44311-.50639-.44311a.76358.76358 0 0 0 -.69632.50639 3.64222 3.64222 0 0 0 -.12662.633s-.06334.18992.06325.06333zm-16.45824-17.53436a2.026 2.026 0 0 1 .94951-.3165 1.47546 1.47546 0 0 1 .88621.25319c.1899.12661.1899-.06329.1899-.1266s.06329-.37981.06329-.633c0-.18992-.50639-.44312-1.01281-.44312-.56971 0-1.07613.2532-1.13941.50641 0 .18991-.06329.5697-.06329.633-.06334.06333-.06334.25324.12657.12664zm18.23068 24.37085.37981-1.77241c0-.06331-.5697-.88622-.5697-.94953a7.87968 7.87968 0 0 1 -.37981-3.86136l-.12662-.06329a7.36514 7.36514 0 0 0 -.06329 3.988 22.42462 22.42462 0 0 1 .75957 2.6586zm-1.58253-5.57046h.18989a.28256.28256 0 0 0 .1899-.25321s.1899-.8229.1899-.88621-.12662-.12662-.25321-.12662-.31651.12662-.31651.1899-.12662.88621-.12662.88621c0 .06332 0 .18993.12662.18993zm-7.40621-30.13124a2.0473 2.0473 0 0 1 .56971.1266 4.86559 4.86559 0 0 1 1.96232-1.58252 9.9295 9.9295 0 0 0 .25321-1.77243c-.37981.3165-.75962.633-1.07613.88621a4.6237 4.6237 0 0 0 -1.70915 2.34214zm.75962-30.38444v1.58252a28.014 28.014 0 0 0 1.70913 7.91261 1.23882 1.23882 0 0 1 .633-.0633c-.12662-1.45592-1.32933-4.49437-1.39262-7.97592v-1.45592zm15.06561 9.30523a1.647 1.647 0 0 1 .44312.1899 36.43868 36.43868 0 0 0 3.165-7.153c.18989-.88621.5697-2.34213 1.07612-3.988-.2532.0633-.50639.0633-.6963.1266-.44312 1.58252-.82291 3.03844-1.20271 4.24116-.82292 2.46878-2.78525 6.58335-2.78525 6.58335zm-12.34367.0633a1.05688 1.05688 0 0 1 .5697.18991 37.38379 37.38379 0 0 0 3.73475-7.02641c.1899-.56971.44312-1.58252.82291-2.72194a3.89227 3.89227 0 0 0 -.82291.06331c-.3798 1.13942-.6963 2.15222-1.07612 3.10173-1.01285 2.46875-3.22841 6.3934-3.22841 6.3934zm8.92543 39.62638.44311-2.34213c0-.12661-.06331-.3165-.06331-.50641a8.968 8.968 0 0 0 -.50639 1.13942 9.70217 9.70217 0 0 1 .12654 1.70912zm-27.66252 2.40543a2.906 2.906 0 0 1 .06331-.633c0-.1899-.50639-.4431-1.07613-.4431s-1.07612.2532-1.1394.50641c0 .18989-.06329.5697-.06329.633s0 .25321.18989.12661a2.00669 2.00669 0 0 1 .88622-.31652 1.4755 1.4755 0 0 1 .88621.25321c.25319.06329.25319-.06331.25319-.12661zm5.12738 8.16583h-.37981c-.5697 0-1.07612.2532-1.1394.50639 0 .1899-.06329.5697-.06329.633s0 .2532.18989.12661a2.026 2.026 0 0 1 .94953-.31651.93859.93859 0 0 1 .44311.06331zm-.94951 1.32931c0 .06331-.06331.88622-.06331.88622a.23187.23187 0 0 0 .25321.2532h.31651a.42058.42058 0 0 0 .3165-.2532s.12662-.82291.12662-.88622-.1899-.12661-.44312-.12661c-.31656-.06328-.50645.06337-.50645.12661zm-12.66018.37979c0 .06331.0633.88622.0633.88622a.2723.2723 0 0 0 .25321.2532h.3165a.27229.27229 0 0 0 .2532-.2532v-.88625c0-.06329-.2532-.12661-.50639-.12661-.19-.06324-.37987.06337-.37987.12661zm1.51922-.31649v-.633c0-.18989-.5697-.44311-1.07612-.44311-.56972 0-1.07613.2532-1.07613.50639v.633c0 .06331 0 .25321.18989.12662a2.00675 2.00675 0 0 1 .88622-.3165 1.47551 1.47551 0 0 1 .88622.25321c.18986.12662.18986-.06329.18986-.1266zm25.13048-47.4124a.42058.42058 0 0 0 .31651-.25319s.1899-.82291.1899-.88621-.1899-.1266-.44312-.1266-.50639.1266-.50639.18991-.06331.8862-.06331.8862a.23187.23187 0 0 0 .2532.2532zm-16.33165.50641a.27227.27227 0 0 0 .2532-.25319s.12662-.82291.12662-.88621-.18989-.1266-.44311-.1266-.5064.1266-.5064.18991v.8862a.27229.27229 0 0 0 .25321.25319zm-15.31882-2.08892c.1899.1266.1899-.06331.1899-.12661a2.90722 2.90722 0 0 1 .06329-.633c0-.18991-.50639-.44311-1.07612-.44311-.12662 0-.37981.06331-.5064.06331v.94951c.0633 0 .3165-.0633.44312-.0633a1.21078 1.21078 0 0 1 .88615.2532zm11.90058 39.68967v.88622a.27229.27229 0 0 0 .2532.2532h.3165a.27229.27229 0 0 0 .2532-.2532s.12662-.82291.12662-.88622-.1899-.1266-.44312-.1266-.50646.06331-.50646.12662zm-13.16665-38.3603v1.266h.37981a.27227.27227 0 0 0 .2532-.2532s.12662-.82292.12662-.8862-.1899-.12661-.44312-.12661c-.06331-.06334-.2532.00001-.31651.00001zm44.88036.3165a.27227.27227 0 0 0 .2532-.2532s.1899-.8229.1899-.8862-.12662-.1266-.37981-.1266a.72362.72362 0 0 0 -.44312.1899c0 .06331-.1266.88621-.1266.88621 0 .1266.06329.2532.1899.2532zm-38.86676 46.01978a2.03585 2.03585 0 0 1 .50639-.06329 5.39589 5.39589 0 0 0 -1.01282-2.02564c-.12662.3165-.3165.69631-.44311 1.01282a7.23458 7.23458 0 0 1 .94954 1.07607zm-2.27884-42.41162a7.40228 7.40228 0 0 1 -1.899-1.70913 3.37772 3.37772 0 0 1 -.50639-1.96233l-.1899-.0633a6.14254 6.14254 0 0 0 .06331 2.72194 4.49127 4.49127 0 0 0 1.45592 2.02562 3.3132 3.3132 0 0 1 1.07607-1.01285zm-2.34214-4.11456a2.90649 2.90649 0 0 1 .06331-.633c0-.18992-.50639-.44311-1.07612-.44311-.0633 0-.3165 0-.37981.06331v.9495c.06331 0 .2532-.0633.31651-.0633a1.47557 1.47557 0 0 1 .88622.2532c.1266.12655.18988-.06335.18988-.12665zm45.38677 8.98872-.1899-.0633a30.8039 30.8039 0 0 0 .12662 3.86136 3.56865 3.56865 0 0 1 .2532.75961l.37981-1.83571a9.11113 9.11113 0 0 1 -.56973-2.722zm-23.67455 48.10871c-.06329-.0633-.06329-.12662-.12661-.1899-.0633.06329-.0633.2532.12661.1899zm-8.48231-2.72193a14.53173 14.53173 0 0 0 3.60815-3.48155 5.31586 5.31586 0 0 0 .37981-2.97514l-.12662.06331a3.79688 3.79688 0 0 1 -1.266 2.65864c-1.07612.94952-2.65864 2.21553-3.29165 2.84854a5.03811 5.03811 0 0 0 -1.39263 2.40543 1.52133 1.52133 0 0 1 .5064.12662c.25322-.5065.37982-.823 1.58255-1.64591zm27.91569-81.15178a.22109.22109 0 0 1 .06331-.12661c.94951-2.91184 1.83573-5.63376 3.10175-5.50717 1.20271.1266.8229 3.10174.6963 5.38057.25321 0 .50639-.0633.75961-.0633.06331-1.899.56971-6.01359-1.51922-5.95028-1.64583.0633-2.91184 3.03844-3.98795 6.39339a4.27354 4.27354 0 0 1 .88619-.12667zm11.90059-1.45591a18.88549 18.88549 0 0 1 1.83573-3.355 12.50724 12.50724 0 0 0 -2.78524 3.54486zm-33.99266 79.8224c-.18989-.75961-.3165-1.45592-.44311-2.21555a4.394 4.394 0 0 0 .633 2.91185c-.06324-.25322-.12653-.4431-.18989-.6963zm-18.99023 5.82369v-.633c0-.12662-.1899-.25321-.44312-.31652-.06329.31652-.18989.633-.2532.88622a2.9447 2.9447 0 0 1 .56971.1899c.12661.06329.12661-.06331.12661-.1266zm9.93824 0a2.00689 2.00689 0 0 1 .88622-.31651 1.47559 1.47559 0 0 1 .88622.2532c.18989.12662.18989-.06329.18989-.12661a2.906 2.906 0 0 1 .06331-.633c0-.18989-.50639-.44311-1.07613-.44311s-1.07612.2532-1.1394.50639c0 .1899-.06331.5697-.06331.633.06331.06332.06331.25325.25319.12664zm-8.79881-2.72192a14.10131 14.10131 0 0 0 3.22835-3.48155 5.18668 5.18668 0 0 0 .12662-2.91185l-.12662.06329a3.48173 3.48173 0 0 1 -1.07613 2.65865c-.94951.88621-2.40542 2.21553-2.97514 2.78523q-.47475 1.3293-.75961 2.46873c.06331 0 .12661 0 .12661.0633a3.76341 3.76341 0 0 1 1.45592-1.64582zm7.53281-.31651a7.101 7.101 0 0 1 1.70914 1.64582 1.2616 1.2616 0 0 1 .50639-.12661 6.54845 6.54845 0 0 0 -1.32932-2.532 30.05617 30.05617 0 0 0 -2.46873-2.46874 3.52175 3.52175 0 0 1 -.88622-2.59533l-.12661-.0633c0 .633-.44312 2.08892.12661 3.22835a6.93088 6.93088 0 0 0 2.46874 2.91179zm19.11687 7.5328c-.5064.82291-.94953 1.83573-1.70914 1.83573-.82291 0-1.45592-2.21553-1.70914-2.84854-.18989-.5064-.3165-.94951-.50639-1.51923a7.58943 7.58943 0 0 1 -.75962-.69631 6.11417 6.11417 0 0 0 .56972 2.65865c.94951 1.899 1.32932 2.84854 2.34213 2.84854.94951 0 .94951-.1266 2.40543-2.02563a2.13915 2.13915 0 0 1 -.633-.25322zm-3.86135-89.06437c.88622-2.40543 2.08891-5.44388 3.29166-5.38057s1.77241 3.48155 1.96234 5.76038c.3165 0 .633.06331.94951.06331-.12662-1.83572-.82291-6.6466-2.78523-6.7732h-.1899c-1.39262.1266-2.97514 3.22834-3.988 6.20349.18989.06324.44309.06324.75962.12659zm-24.56077 24.56076c.44311 0 .5697.1266.5697.1266.633-1.58252 2.21554-4.43106 2.72192-7.153.1899-1.01281.44312-3.03845.75962-5.31727-.25321-.0633-.5064-.0633-.75962-.1266a42.43027 42.43027 0 0 1 -1.01282 5.82369c-.69627 2.532-2.27879 6.64653-2.27879 6.64653zm22.66174 60.13588a1.54506 1.54506 0 0 1 -.06331.44312c0 .12661.06331.2532.1899.2532h.31649c.06331 0 .06331 0 .12662-.06329a2.851 2.851 0 0 1 -.5697-.63307zm9.74834 5.69708a.74165.74165 0 0 0 .6963.56972 1.88557 1.88557 0 0 0 .88622-.31651 11.81471 11.81471 0 0 0 -1.58251-.25327zm-10.38135-5.63372c-.1899 1.20271-1.83573 2.97514-2.46874 3.86136-.633.8229-2.02563 2.91185-2.84854 2.91185s-2.46873-2.91185-2.78523-3.41825a8.40968 8.40968 0 0 1 -1.45592-3.35493l-.18989-.06329a8.78618 8.78618 0 0 0 .88621 3.798c.94951 1.899 2.72193 3.54486 3.67145 3.54486s1.899-.94952 3.67143-3.10174c1.83573-2.27884 1.96233-3.73476 1.77242-4.24117zm-15.25549-87.60859c.50639-1.39262 1.1394-2.34214 1.77242-2.27884.75961.06331 1.32933 1.39261 1.77241 2.97515a3.70489 3.70489 0 0 0 .82291.1266c-.44312-1.70913-1.13941-3.355-2.15224-3.73475a1.39385 1.39385 0 0 0 -.50639-.06331 1.1739 1.1739 0 0 0 -.44312.12661 4.80588 4.80588 0 0 0 -1.899 2.65863c.18986.06331.37977.12661.63301.18991zm4.68427 87.35526c-.25321 0-.5064.12662-.5064.18989v.88622a.27229.27229 0 0 0 .25321.2532h.31649a.27229.27229 0 0 0 .25321-.2532s.12662-.82291.12662-.88622c.06323-.12657-.19-.18989-.44318-.18989zm-11.64737.18993c-.12662.3798-.1899.8229-.3165 1.20271v.06331h.18989a.27229.27229 0 0 0 .25321-.25321v-.88621c.06326-.06331-.00006-.06331-.12665-.1266zm8.29243 4.43106c-.633.8229-2.02563 2.84854-2.84854 2.84854s-2.59535-2.84854-2.91185-3.35494a10.41717 10.41717 0 0 1 -1.83572-3.60815l-.1899-.0633a7.01278 7.01278 0 0 0 1.20271 4.11457c1.13941 1.77241 2.72193 3.48155 3.73476 3.41824.94951 0 2.08891-.88621 3.798-3.03844a9.04363 9.04363 0 0 0 1.77241-4.621l-.2532.12662c-.25323 1.1394-1.83575 3.29164-2.46876 4.17786zm7.91267-17.85086a4.8371 4.8371 0 0 1 1.96235 1.96232 2.03493 2.03493 0 0 1 .50639-.06331 3.63926 3.63926 0 0 0 -1.58254-2.84854 12.91817 12.91817 0 0 1 -2.65864-2.59534 2.8336 2.8336 0 0 1 -.5064-1.77243l-.18989-.06329a5.57444 5.57444 0 0 0 .12662 2.46874 6.47033 6.47033 0 0 0 2.34207 2.91185zm13.2932-41.652a9.79974 9.79974 0 0 1 1.39263-.0633h.18989a3.62965 3.62965 0 0 0 .25321-.4431 5.96141 5.96141 0 0 0 .2532-2.532l-.1899.06331a3.56479 3.56479 0 0 1 -1.1394 2.34213 2.53372 2.53372 0 0 1 -.75967.633zm1.70911-3.355c0 .0633 0 .2532.18989.1266a2.0262 2.0262 0 0 1 .94953-.31651 1.137 1.137 0 0 1 .8229.2532c.1899.1266.1899-.0633.1899-.1266s.06329-.37981.06329-.633c0-.1899-.44311-.4431-1.01281-.4431s-1.13941.2532-1.13941.50641-.06334.56975-.06334.63306zm-16.39493.50641c0 .0633 0 .2532.1899.1266a2.0068 2.0068 0 0 1 .88621-.31651 1.47543 1.47543 0 0 1 .88622.2532c.18989.1266.18989-.0633.18989-.12661a2.90662 2.90662 0 0 1 .06331-.633c0-.1899-.50639-.4431-1.07613-.4431s-1.07612.2532-1.1394.50641zm1.266-2.46875c-.56971 0-1.07613.2532-1.13941.50641 0 .18991-.06329.56971-.06329.633s0 .2532.18989.1266a2.00669 2.00669 0 0 1 .88622-.31649 1.47546 1.47546 0 0 1 .88621.25319c.1899.12661.1899-.06331.1899-.1266a2.90722 2.90722 0 0 1 .06329-.633c0-.18985-.50645-.44306-1.01286-.44306zm1.266 4.74757a3.042 3.042 0 0 1 -.5697-1.96233l-.18989-.0633a5.656 5.656 0 0 0 .12661 2.72194c.44312 1.45592 2.15224 2.59534 3.03844 3.165a.062.062 0 0 1 .06329.06068v.00263c.44312-.31651.94953-.633 1.39263-.88621-1.01287-.69622-3.16509-2.02554-3.86141-3.03836zm26.20658-3.355c-.06331.18991-.06331.56971-.12662.633 0 .06331 0 .2532.12662.12661a1.70983 1.70983 0 0 1 .75961-.3165.89728.89728 0 0 1 .6963.2532c.12662.1266.1899-.06331.1899-.12661a5.30055 5.30055 0 0 1 .12662-.633c.06329-.18991-.37981-.44311-.82291-.44311s-.94954.25331-.94954.50651zm-10.95105-1.83572c-.56972 0-1.13941.2532-1.13941.50641 0 .18991-.06331.56971-.06331.633s0 .25319.1899.1266a2.02594 2.02594 0 0 1 .94951-.31651 1.47546 1.47546 0 0 1 .88621.25319c.12662.1266.1899-.0633.1899-.1266s.06329-.37981.06329-.633-.50642-.443-1.07611-.443zm8.0392 7.34292c-.37981.31649-.633.5697-.94951.8229.2532.18991.5697.37981.8229.56971.25321-.18991.56972-.44311.94953-.69632 2.21553-1.64582 2.15222-5.12737 2.15222-5.12737l-.1899.0633c-.18992 1.64593-1.01283 2.91195-2.7853 4.36787zm-7.40619-4.55768-.1899-.0633a7.24209 7.24209 0 0 0 -.18989 3.10173c.44311.06331.88621.12661 1.39262.18991-.1899-.25319-.37981-.5064-.633-.8862a3.43961 3.43961 0 0 1 -.37986-2.342zm-13.92624 45.83a1.415 1.415 0 0 0 -.1899.633h.12662a1.95218 1.95218 0 0 0 .06324-.63306zm27.979-40.76579a6.56621 6.56621 0 0 0 -1.32931 2.65864.48987.48987 0 0 1 .18989.0633 4.843 4.843 0 0 1 1.83573-2.27884c.06331 0 .06331-.0633.12661-.1266l.37981-1.64582c-.44314.50637-.69634.75956-1.20277 1.32926zm-3.10174-8.22912a1.91441 1.91441 0 0 1 .633-.1266c.0633-1.45592 0-4.74757.0633-8.22912 0-.50641.0633-1.13942.12661-1.899-.31649.06331-.5697.06331-.88621.1266-.0633.75961-.12662 1.45593-.12662 1.96234a69.03979 69.03979 0 0 0 .18994 8.16579zm-24.81394-6.07693a66.88772 66.88772 0 0 1 -3.22835 6.52 2.44418 2.44418 0 0 1 .6963.12661c.37981-1.13941 3.10175-4.36776 3.86136-7.34291.12662-.633.37981-1.64582.633-2.84855a4.791 4.791 0 0 1 -.94951-.0633 36.1293 36.1293 0 0 1 -1.0128 3.60815zm-7.153 13.35649h1.899a3.24673 3.24673 0 0 0 .69632-1.13942 5.96156 5.96156 0 0 0 .25319-2.532l-.1899.06331a3.56473 3.56473 0 0 1 -1.1394 2.34213 8.39774 8.39774 0 0 1 -1.51929 1.266zm24.30755 42.918-.12661.06331a11.23705 11.23705 0 0 1 -1.899 4.24116c-.0633.12662-.18989.1899-.2532.3165a4.66555 4.66555 0 0 0 -.12662 1.45592 8.83044 8.83044 0 0 0 1.01282-1.39262 12.16584 12.16584 0 0 0 1.39255-4.68422zm8.16585-49.81782c-.44311 0-.94952.25319-.94952.5064-.0633.18991-.0633.56971-.12662.633 0 .0633 0 .25319.12662.1266a1.71008 1.71008 0 0 1 .75961-.31651.89735.89735 0 0 1 .69632.25319c.12662.12661.1899-.0633.1899-.1266a5.30249 5.30249 0 0 1 .12661-.633c.06321-.18986-.3166-.44306-.823-.44306zm-29.43493.1899a1.69536 1.69536 0 0 1 .5697-.1266c-.12662-1.45592-1.96233-4.49437-2.34213-7.97592-.0633-.69632-.1899-1.64583-.3165-2.65864-.31652 0-.633-.0633-.88622-.0633.12662 1.13942.25321 2.21553.3165 2.97514.37973 3.54489 2.40535 6.64663 2.65857 7.84935zm-6.77321 47.98211c.75961-.5064 3.03843-2.34213 3.54486-3.86136a5.51214 5.51214 0 0 0 .3165-2.27882l-.1899.06329a2.725 2.725 0 0 1 -1.07613 2.08891 31.7069 31.7069 0 0 1 -3.10174 2.84856 4.59383 4.59383 0 0 0 -1.70914 2.59534 1.67046 1.67046 0 0 1 .44312.06329 5.415 5.415 0 0 1 1.77235-1.5192zm11.64737-16.01514-.06331.06329a3.6637 3.6637 0 0 1 -1.39263 2.59536c-1.1394.8229-3.22836 2.65863-3.92466 3.165a4.09642 4.09642 0 0 0 -1.45592 2.15224 1.52131 1.52131 0 0 1 .50639.1266 3.67734 3.67734 0 0 1 1.70914-1.39262c1.1394-.633 3.67145-2.65865 4.24116-3.86136a7.56482 7.56482 0 0 0 .37975-2.84847z" fill="url(#t)"/><path d="m232.18778 82.671c.50639-.75962.5697-2.65863-2.78523-3.48155-1.58252-.37981-10.82447-1.70913-25.95339-1.83572-15.06561-.1266-19.18017.1899-27.47259.5697a1.64229 1.64229 0 0 1 -1.70914-1.20271 1.39371 1.39371 0 0 0 -.06331.50641 1.678 1.678 0 0 0 1.64386 1.71145q.06429.0013.12856-.00233c8.29242-.4431 12.407-.75961 27.47259-.5697 15.06561.1266 24.30754 1.51922 25.95337 1.83571 2.97514.56971 2.72192 2.40544 2.72192 2.46873z" fill="url(#u)" opacity=".6"/><path d="m175.97657 76.40422c.8229-.06331 16.01512-.82292 26.713-.56971 10.63454.2532 23.61124.75961 28.10561 2.02563 1.58252.4431 2.65865 1.266 2.84854 2.59533v-.1899c.12662-1.77243-1.1394-2.722-2.91183-3.22835-4.49437-1.32933-17.47106-1.77243-28.10561-2.02562s-25.82677.50641-26.713.5697a1.75688 1.75688 0 0 0 -1.77241 1.70913.80278.80278 0 0 0 .06329.3798 1.84386 1.84386 0 0 1 1.77241-1.26601z" fill="url(#v)"/><path d="m164.3292 180.09113v1.70913c1.1394.37981 4.49437.75962 11.45747.94951v-1.39262a68.35194 68.35194 0 0 1 -10.38133-.82291c-1.07614-.18993-1.07614-.44311-1.07614-.44311z" fill="url(#w)"/><path d="m356.57407 159.32841a8.80614 8.80614 0 0 1 -1.39264 4.05126 11.05441 11.05441 0 0 0 3.03845-7.59612 11.37144 11.37144 0 0 0 -1.45593-5.50718l-1.51923 1.51922a1.08511 1.08511 0 0 0 -.06329 1.51923 8.87739 8.87739 0 0 1 1.39264 6.01359z" fill="#b59461"/><path d="m85.58284 120.525c-8.54562-11.26757-4.30445-20.50951-3.60814-21.83882a24.40469 24.40469 0 0 0 -4.55767 9.875c-1.39261 6.45668.633 13.7996 2.65864 18.86367l5.38057-4.87417a1.46622 1.46622 0 0 0 .1266-2.02568z" fill="#b59461"/><path d="m167.05114 154.64417a64.045 64.045 0 0 1 -6.3301 7.5328 39.80377 39.80377 0 0 1 -6.45669 5.38059 10.48151 10.48151 0 0 1 -5.57048 1.899c-.633 0-1.899 0-2.65865-2.65865a9.30745 9.30745 0 0 1 .18991-4.30444 58.9746 58.9746 0 0 1 2.65863-8.22913c1.32933-3.48155 3.16506-7.97592 5.4439-13.22989 2.27882-5.31727 5.064-11.83726 8.35571-19.62329a1.386 1.386 0 0 0 -.1899-1.39261 1.80064 1.80064 0 0 0 -1.45591-.69631h-9.30524a1.15952 1.15952 0 0 0 -1.13942.8862l-11.774 29.81474a44.05453 44.05453 0 0 0 -2.21553 8.73552 18.02065 18.02065 0 0 0 .4431 7.153 11.4935 11.4935 0 0 0 3.73475 5.63377 11.11016 11.11016 0 0 0 7.53281 2.59534 16.06753 16.06753 0 0 0 7.84932-2.21553 39.1724 39.1724 0 0 0 6.4567-4.74758c-.44312 1.32933-.88622 2.65865-1.32932 3.92467a1.44886 1.44886 0 0 0 .2532 1.32932 1.65238 1.65238 0 0 0 1.266.633h9.17864a1.29348 1.29348 0 0 0 1.266-1.01282 60.154 60.154 0 0 1 2.532-8.29241 102.61629 102.61629 0 0 1 4.49437-10.508 122.68459 122.68459 0 0 1 5.887-10.95107 86.861 86.861 0 0 1 6.77321-9.875 35.51892 35.51892 0 0 1 7.153-7.02639 11.90635 11.90635 0 0 1 6.77321-2.46875 4.56277 4.56277 0 0 1 2.532.633 2.614 2.614 0 0 1 1.20271 1.70913c.5697 2.08893.1899 4.68425-1.1394 7.5961-1.45592 3.165-3.165 6.5833-5.06408 10.12815a116.65312 116.65312 0 0 0 -5.06408 10.69786 16.852 16.852 0 0 0 -1.01282 10.57126 12.72752 12.72752 0 0 0 5.19067 7.4062 14.74379 14.74379 0 0 0 8.60894 2.65865 15.789 15.789 0 0 0 6.77319-1.51923 25.11532 25.11532 0 0 0 6.0136-4.05125 7.58942 7.58942 0 0 0 .75961-.69632 13.12141 13.12141 0 0 0 11.58406 6.26678 16.79981 16.79981 0 0 0 10.06483-3.29165 40.17832 40.17832 0 0 0 8.03923-7.72272c.25321-.3165 1.58254-1.83573 2.34215-2.78523l-.44311 1.39262a14.66868 14.66868 0 0 0 .50641 3.988 11.59474 11.59474 0 0 0 3.86135 5.887 12.04017 12.04017 0 0 0 7.84931 2.532 16.60106 16.60106 0 0 0 10.82446-4.36777 50.24134 50.24134 0 0 0 5.50717-5.50719c.06333.37981.18991.75962.25321 1.13941a11.70951 11.70951 0 0 0 3.988 6.26678 12.60926 12.60926 0 0 0 8.10251 2.40543 14.2401 14.2401 0 0 0 5.44388-1.13941v.0633a20.14427 20.14427 0 0 0 5.44388-3.35494c.12662-.06329.18991-.18989.3165-.2532a51.44574 51.44574 0 0 0 5.38058-5.254 12.07 12.07 0 0 0 3.48157 5.57048h-.06329a2.27358 2.27358 0 0 0 .633.44312.87323.87323 0 0 0 .25324.18989c.18988.1899.44311.31651.633.50639.12662.06331.18988.12662.3165.1899a17.25758 17.25758 0 0 0 8.73553 2.84854 9.8 9.8 0 0 0 1.39264.06331 112.14163 112.14163 0 0 0 19.56-.06331h.37979c8.22913-.94951 14.6225-7.4695 14.6225-15.31883a14.69691 14.69691 0 0 0 -4.49436-10.508c-.633-.633-1.70913.06331-1.266.82293a13.32212 13.32212 0 0 1 1.83576 6.8365c0 7.8493-6.83649 14.17939-15.19223 14.17939h-.12662c-.56973 0-1.1394.06331-1.77243.06331a20.123 20.123 0 0 0 5.76038-7.02641.062.062 0 0 1 .06067-.06331h.00262a18.28419 18.28419 0 0 0 2.40543-6.64659 14.01836 14.01836 0 0 0 -.44312-5.63377 23.27682 23.27682 0 0 0 -3.10175-6.83651c-1.32931-1.899-2.72192-3.79806-4.17785-5.63377-1.4559-1.70912-2.84854-3.48155-4.11456-5.254a17.59387 17.59387 0 0 1 -2.59531-5.50718 8.1352 8.1352 0 0 1 -.18991-4.24115 5.5221 5.5221 0 0 0 -.12662-3.03844 2.781 2.781 0 0 0 -4.55768-1.266 12.88191 12.88191 0 0 0 -1.58252 1.64583 12.66569 12.66569 0 0 0 -2.78524 5.69708 14.36975 14.36975 0 0 0 0 5.69708 127.40852 127.40852 0 0 1 -6.89982 14.49591 96.30218 96.30218 0 0 1 -7.97592 12.15378c-.06332.06329-.06332.1266-.12661.18989a43.97879 43.97879 0 0 1 -8.16584 8.03922c-2.532 1.83572-4.87417 2.78523-7.0264 2.78523-1.07614 0-2.15222-.3165-2.72195-2.532a10.17922 10.17922 0 0 1 -.12662-3.73476 36.123 36.123 0 0 1 1.58252-6.52c.8862-2.78523 2.21552-6.52 3.92465-10.95107 1.77244-4.49436 4.05127-10.19145 6.77323-17.028 2.78522-6.89979 3.29166-8.86213 7.21631-18.54718 1.266-3.165 2.34213-5.887 3.41827-8.54561 2.27881-5.69709 4.49436-11.01436 7.97592-20.0031a1.405 1.405 0 0 0 -.18991-1.39262 1.53961 1.53961 0 0 0 -1.266-.69631c-6.89981 0-12.34369 3.48155-14.5592 9.36854-1.51923 4.05125-2.72193 7.2163-4.05127 10.69785-.75962 1.899-1.5192 3.92465-2.40543 6.20349-3.54486 9.17863-3.67145 10.38135-6.1402 16.71144-2.532 6.4567-4.68426 11.90058-6.3934 16.33164s-3.03842 8.22912-3.988 11.39416a35.9075 35.9075 0 0 0 -1.51919 7.08971c-.3165.44312-.633.88622-.94952 1.266a46.06518 46.06518 0 0 1 -7.9126 8.1025c-2.40543 1.83573-4.49439 2.78524-6.26679 2.78524a3.1324 3.1324 0 0 1 -3.48153-2.65865c-.44312-1.51922-.25321-3.73475.37982-6.5833a85.85465 85.85465 0 0 1 3.35495-10.63455c1.51922-4.05125 3.29165-8.54562 5.31726-13.2932 2.02563-4.81086 4.24118-9.81163 6.45669-14.87571a1.40489 1.40489 0 0 0 -.18988-1.39261 1.5396 1.5396 0 0 0 -1.266-.69632h-9.6218a1.349 1.349 0 0 0 -1.266.94952l-1.39261 4.74756a13.407 13.407 0 0 0 -1.64585-3.60815c-1.4559-2.15222-4.05127-3.29164-7.65942-3.29164a23.72538 23.72538 0 0 0 -10.50795 2.78524 39.48788 39.48788 0 0 0 -9.93826 7.08969 22.5501 22.5501 0 0 0 -4.49436 6.3301l-.75955 1.58258c-1.01282 2.27884-2.21555 4.68426-3.48155 7.27962s-2.46874 5.12738-3.48157 7.59611a55.21509 55.21509 0 0 0 -2.40543 7.08971 12.46071 12.46071 0 0 0 -.3798 5.19067 25.81263 25.81263 0 0 1 -3.86136 3.41824 14.28235 14.28235 0 0 1 -8.419 2.91185c-2.08891 0-3.165-.88621-3.73475-2.97514a7.68589 7.68589 0 0 1 .3798-3.988 48.2944 48.2944 0 0 1 2.46874-6.20349c1.01282-2.27882 2.21554-4.68426 3.48157-7.2796s2.46873-5.12738 3.48155-7.59611a55.214 55.214 0 0 0 2.40542-7.08971 12.06838 12.06838 0 0 0 .1899-6.33009 12.93668 12.93668 0 0 0 -4.68427-7.0897 13.39506 13.39506 0 0 0 -8.48231-2.78523 16.79989 16.79989 0 0 0 -10.06484 3.29164 40.17951 40.17951 0 0 0 -8.03921 7.72271c-.31651.3798-.633.82292-.94952 1.20271l3.988-8.86213a1.52378 1.52378 0 0 0 -.18989-1.45593 1.65146 1.65146 0 0 0 -1.32932-.69631h-9.30525a1.15954 1.15954 0 0 0 -1.13941.8862zm97.67332-22.40853c-.69632 2.15222-3.54486 9.685-6.58328 16.90134-1.20273 2.91185-3.48157 8.73552-5.12738 11.39416-1.96234 3.165-4.68427 4.74758-7.153 6.52a11.90618 11.90618 0 0 1 -6.77321 2.46873 4.56242 4.56242 0 0 1 -2.532-.633 2.614 2.614 0 0 1 -1.20271-1.70914c-.5697-2.08891-.1899-4.68427 1.1394-7.59612l11.33086-26.77629c1.39262-3.48155 2.34215-5.50718 4.49437-7.5961a7.56319 7.56319 0 0 1 2.46873-1.70913 7.47982 7.47982 0 0 1 3.03844-.633c2.15222 0 5.8237.88621 6.89981 2.532 1.13938 1.64589 1.07608 3.60817 0 6.83652zm60.51566 35.132a7.82741 7.82741 0 0 1 -1.899-4.43108 16.42438 16.42438 0 0 1 .06329-3.92467 21.3085 21.3085 0 0 1 .82291-3.67145 1.55918 1.55918 0 0 0 -.12662-1.39262 1.22653 1.22653 0 0 0 -1.01278-.6963h-.75962c1.32932-2.27884 2.65863-4.621 3.86133-7.02642 1.58252-3.10174 2.91184-6.14018 4.17783-8.98872a8.6949 8.6949 0 0 0 .8229 1.266c1.20273 1.77243 2.46875 3.60815 3.798 5.38058 1.266 1.77243 2.532 3.60815 3.73477 5.44389a18.155 18.155 0 0 1 2.34213 5.254 19.00821 19.00821 0 0 1 .633 5.00076 10.54432 10.54432 0 0 1 -.88623 4.36777 9.24318 9.24318 0 0 1 -2.532 3.35494 8.70784 8.70784 0 0 1 -4.30447 1.899 16.18661 16.18661 0 0 1 -4.621.18989 5.98786 5.98786 0 0 1 -4.11444-2.0256zm-170.08956-61.5285a6.7099 6.7099 0 1 1 6.7099 6.70991 6.7099 6.7099 0 0 1 -6.7099-6.70991zm109.63719-30.76425c-8.54562 8.73553-26.14326 21.96542-54.43878 22.47183-30.63763.50641-50.83062-5.82367-69.7576-10.00155a153.92626 153.92626 0 0 0 -19.62329 32.6 97.72349 97.72349 0 0 1 13.79961-.75961c1.266 0 2.72194.5697 2.08893 2.72194l-2.78523 7.0897a2.18107 2.18107 0 0 1 -1.96233 1.07612c-4.55767 0-9.81164-.12661-15.31882 0-7.65942 20.1297-11.774 39.24658-25.51028 61.59179-17.78759 28.92851-44.374 28.7386-59.6928 25.57355a.92485.92485 0 0 1 .18991-1.83572c5.95028.12661 14.74911.44311 22.91493-3.03844 7.97592-3.35494 26.39647-13.8629 40.95569-61.02208 2.27884-7.4062 4.68427-14.05281 7.08971-19.93979-1.01282.1899-2.02563.37981-3.03845.633a50.7826 50.7826 0 0 0 -14.43261 6.20349.67878.67878 0 0 1 -.88621-1.01282 47.69751 47.69751 0 0 1 15.69863-11.52077c2.08893-.8862 4.11457-1.64582 6.14019-2.34213 12.34368-27.02949 24.30756-36.08152 26.45978-37.60075a111.8572 111.8572 0 0 0 -17.28115-1.83572c-26.83958-.5697-37.79066 11.90058-40.44929 24.05436-1.58252 7.2796.7596 15.31882 2.84854 20.5728a1.02827 1.02827 0 0 1 -1.83573.8862c-2.78524-3.988-5.887-10.57125-6.01358-20.06639-.31652-17.34444 14.74912-34.9421 45.19686-35.44851s64.75684 14.62252 95.01468 15.06561c25.89008.37981 43.93083-8.92543 53.29938-15.44542 1.01282-.75958 2.15222.50642 1.32931 1.32931z"/><path d="m47.3491 63.55413h-32.85319a14.49372 14.49372 0 0 0 -14.49591 14.49151v111.16081a14.548 14.548 0 0 0 14.49591 14.55921h32.78988a14.5613 14.5613 0 0 0 14.55921-14.55921v-111.15645a14.53444 14.53444 0 0 0 -14.4959-14.4959" fill="#fff"/><path d="m39.18327 89.2543.06331.4431c1.0128.56971 1.51921 1.07611 2.532 1.70912 2.65863 1.70913 5.95028 4.68428 5.57048 15.00232.75961 2.27884 1.07611 6.6466 1.77243 8.10253 1.39262 2.78524 2.34213 4.55766 2.72194 7.153 0 0 .3798 4.05126.94951 4.36776 2.78524.633 1.96233.8862 2.34212 1.39261.44312.56971 2.02563.50641 2.02563 2.02564a9.3889 9.3889 0 0 1 1.266 2.34213v-53.74251a11.08979 11.08979 0 0 0 -11.07759-11.07764h-10.63456a5.1796 5.1796 0 0 1 3.22835 2.46874c1.39262.1266 2.97514 3.165.4431 7.72272 1.13942.7596.25321 1.83571-.56971 3.165-.2532.44311-.50641 1.13942-1.266 1.07612-.94952 2.02562-2.15224 3.988-2.97515 4.11456a1.43539 1.43539 0 0 0 -.0633 1.58252 15.18392 15.18392 0 0 1 3.67146 2.15224" fill="#c8102e"/><path d="m58.42675 139.00882a9.88459 9.88459 0 1 1 -11.52075-13.29319c-1.13941-2.84854-3.54485-7.46951-4.24115-8.98873s-2.27884-10.88776-2.65864-12.78678c-.0633-.37981-4.24116 2.40543-4.30447 2.59533-.2532.2532-3.165 7.786-3.29164 8.22912a10.35825 10.35825 0 0 0 -.0633 1.266s1.45592.1899 2.21553 2.65863c.82289 2.4688 3.29167 11.5208 3.29167 11.5208a6.30356 6.30356 0 0 1 -.6963.633c3.10175 10.44466 2.02563 14.939 3.41825 18.04076 1.77243 4.30446 2.21554 3.73476 3.73476 7.40622 1.07611 2.65864 2.27883 13.04 2.72194 13.54638 1.70912 2.15224 2.59534 3.798 2.59534 5.00077s-1.45593 4.81086-.88622 6.89979c.31651 1.20272.50641 3.988 1.07612 4.49437 0 0 .50641 1.01282.2532 1.51923-.0633.18989-.2532.37981-.1266.56972.94951 3.29165 3.92466 8.86213-.94951 11.83728h.1266a10.9954 10.9954 0 0 0 9.30523-10.95107z" fill="#c8102e"/><path d="m45.95648 187.11752c-1.77244-1.58252-.56971-2.27882-.633-2.91183-1.20273-4.87418-5.06408-7.786-3.03845-9.36853-.50641-1.58252-1.51922-3.60816-1.45592-3.60816-6.01359-3.48155-11.141-9.052-12.02718-9.875-1.07611-1.1394-2.84854-2.27884-3.165-3.22834-1.45593-1.32932-8.54564-11.39417-10.19145-15.06566l-2.84854-.37981c-1.32938-5.31721-5.69714-9.8116-5.76045-15.19222a27.539 27.539 0 0 1 1.266-7.2163 10.449 10.449 0 0 1 2.02563-2.34214v-1.45592c-6.26678.18991-4.49436-.4431-5.57047-2.91184-.75961-1.70913-.1899-2.089.0633-3.22836.82291-3.48156 3.60815-8.79883 4.81086-11.20427.37982-1.20271 1.58253-4.17785 1.58253-4.17785 4.68427-9.49514 6.39339-8.79883 11.96387-9.36854l.25321-.37981c5.57049-.25319 4.68426-.633 5.44388-6.01359-.82291.31652-1.07612-1.70912-1.07612-1.70912-.4431-3.03845.82292-2.46872 1.45592-2.532.1266-5.00078.633-6.5833 4.24117-7.97592h-18.80036a11.08979 11.08979 0 0 0 -11.07766 11.07769v111.15644a11.04941 11.04941 0 0 0 11.02108 11.07765q.02829.00006.05658 0h32.85319c-3.73477-1.9623-1.51923-5.82366-1.39262-13.16657z" fill="#1d428a"/><path d="m20.7627 193.321v-20.12969h3.92466c2.27883 0 3.67145 1.20272 3.67145 4.05126v2.97514c0 1.83573-.56971 2.78523-1.32932 3.22835a3.34964 3.34964 0 0 1 1.32932 2.97514v2.9118c0 2.78523-1.45592 3.988-3.67145 3.988zm2.65864-8.73552v6.20352h1.01281c.94952 0 1.20272-.50639 1.20272-1.45592v-3.41824c0-1.01282-.3165-1.32931-1.20272-1.32931zm0-8.86214v6.64666h1.01281c.94952 0 1.20272-.3165 1.20272-1.45592v-3.86136c0-.94951-.2532-1.32932-1.20272-1.32932zm11.20426 13.5464h-2.40543l-.31651 4.11457h-2.78524l2.40544-20.12969h3.86135l2.34214 20.12969h-2.78524zm-1.20271-13.79959h-.12659c-.18991 2.40543-.50641 6.7099-.633 8.03922l-.31651 3.48155h2.08894l-.31651-3.48155c-.12661-1.39263-.50641-5.5705-.69631-8.03922m-20.69943 17.85085h-2.34213v-20.12969h3.73475l2.97516 16.52155c-.25321-3.92467-.56971-8.7355-.56971-12.78679v-3.73476h2.34213v20.12969h-3.41826l-2.97514-16.14174c.1899 3.73476.2532 6.7099.2532 9.81165z" fill="#fff"/></svg>